<svg xmlns="http://www.w3.org/2000/svg" xmlns:lucid="lucid" width="607" height="417">
    <g lucid:page-tab-id="0_0">
        <path d="M345 49.57c0 15.1-11.64 27.34-26 27.34s-26-12.23-26-27.33c0-15.1 11.64-27.33 26-27.33s26 12.24 26 27.33z" stroke="#000" stroke-width="2" fill="#dc002e"/>
        <path d="M206 121.33c0-2.76 2.24-5 5-5h28c2.76 0 5 2.24 5 5v29.5c0 2.75-2.24 5-5 5h-28c-2.76 0-5-2.25-5-5zM306 137.82c0-2.77 2.24-5 5-5h38c2.76 0 5 2.23 5 5v38c0 2.76-2.24 5-5 5h-38c-2.76 0-5-2.24-5-5zM416 122.92c0-2.77 2.24-5 5-5h26c2.76 0 5 2.23 5 5v27.4c0 2.77-2.24 5-5 5h-26c-2.76 0-5-2.23-5-5z" stroke="#000" fill="#99d2f2"/>
        <path d="M27.8 317c-1.55 2.3-.56 4.15 2.2 4.15h35c2.76 0 3.75-1.86 2.2-4.15l-16.9-25.18c-1.55-2.3-4.05-2.3-5.6 0z" stroke="#000" fill="#a3d977"/>
        <path d="M107 217.28c-1.47-2.34-1.47-6.13 0-8.46l7.1-11.28c1.46-2.34 4.9-4.23 7.65-4.23h14.83c2.76 0 6.2 1.9 7.67 4.24l7.1 11.28c1.46 2.33 1.46 6.12 0 8.46l-7.1 11.28c-1.47 2.34-4.9 4.23-7.67 4.23h-14.83c-2.76 0-6.2-1.9-7.66-4.24z" stroke="#000" fill="#fcc438"/>
        <path d="M73.52 380.5c-1.4 2.38-.28 4.32 2.48 4.32h36.06c2.76 0 3.87-1.94 2.48-4.32l-18-30.85c-1.38-2.38-3.64-2.38-5.03 0zM126.53 334.78c-1.4 2.37-.32 4.3 2.44 4.3H159c2.76 0 3.85-1.93 2.43-4.3l-14.88-24.9c-1.42-2.37-3.7-2.37-5.13 0zM180.77 372.2c-1.55 2.28-.56 4.13 2.2 4.13H213c2.76 0 3.74-1.85 2.2-4.13l-14.4-21.25c-1.56-2.28-4.07-2.28-5.62 0zM234.63 341.1c-1.47 2.34-.42 4.23 2.34 4.23h39.67c2.76 0 3.8-1.9 2.33-4.23l-19.5-31.02c-1.48-2.33-3.86-2.33-5.33 0zM304.46 374.5c-1.4 2.38-.28 4.32 2.48 4.32H343c2.76 0 3.87-1.94 2.48-4.32l-18-30.85c-1.38-2.38-3.64-2.38-5.03 0z" stroke="#000" fill="#a3d977"/>
        <path d="M188.96 243.48c-1.54-2.3-1.54-6 0-8.3l5.87-8.7c1.54-2.3 5.03-4.15 7.8-4.15h12.9c2.77 0 6.26 1.86 7.8 4.15l5.88 8.7c1.55 2.3 1.55 6 0 8.3l-5.86 8.7c-1.55 2.3-5.04 4.15-7.8 4.15h-12.9c-2.78 0-6.27-1.85-7.8-4.14zM273.66 247.57c-1.47-2.34-1.47-6.13 0-8.47l7.1-11.28c1.46-2.33 4.9-4.23 7.66-4.23h14.83c2.76 0 6.2 1.9 7.66 4.22l7.1 11.28c1.47 2.34 1.47 6.13 0 8.47l-7.1 11.27c-1.46 2.34-4.9 4.23-7.65 4.23h-14.83c-2.76 0-6.2-1.9-7.67-4.23zM481.96 226.58c-1.54-2.3-1.54-6 0-8.3l5.12-7.6c1.54-2.3 5.03-4.15 7.8-4.15h11.4c2.77 0 6.26 1.86 7.8 4.15l5.13 7.6c1.55 2.3 1.55 6 0 8.3l-5.12 7.6c-1.54 2.3-5.03 4.15-7.8 4.15h-11.4c-2.77 0-6.26-1.85-7.8-4.14zM411.8 245.9c-1.55-2.28-1.55-6 0-8.28l5.12-7.6c1.54-2.3 5.03-4.16 7.8-4.16h11.4c2.77 0 6.26 1.86 7.8 4.15l5.12 7.62c1.54 2.3 1.54 6 0 8.3l-5.12 7.6c-1.54 2.3-5.03 4.15-7.8 4.15h-11.4c-2.77 0-6.26-1.86-7.8-4.15zM341.66 277.4c-1.47-2.35-1.47-6.14 0-8.48l5-7.96c1.48-2.34 4.9-4.23 7.67-4.23H365c2.76 0 6.2 1.9 7.66 4.23l5 7.96c1.48 2.34 1.48 6.13 0 8.47l-5 7.95c-1.47 2.34-4.9 4.23-7.66 4.23h-10.67c-2.76 0-6.2-1.9-7.66-4.23z" stroke="#000" fill="#fcc438"/>
        <path d="M296.76 65.44l-4.7 2.73-6.1 3-9.4 3.8-29.5 10.67-4.38 2.16-3.15 1.83-2.45 1.66-2 1.56-1.66 1.5-1.42 1.5-1.23 1.47-.9 1.23" stroke="#000" stroke-width="2" fill="none"/>
        <path d="M298.2 65.83l-1 .5-.9-1.8.82-.4z"/>
        <path d="M234.22 100.25l-8.34 12.47-.58-15z" fill="#fff"/>
        <path d="M235.82 99.66L225 115.83l-.75-19.44zm-9.06 9.95l5.86-8.76-6.27-1.77z"/>
        <path d="M208.9 155.65l-.52 1.4-.55 1.3-.6 1.18-.67 1.1-.7 1.04-.77 1-.84.93-.9.9-1 .87-1.08.85-1.22.82-1.36.8-1.57.8-1.8.8-2.15.76-2.62.76-3.32.74-4.54.7-7.54.7-25.06 1.47-3.86.6-2.72.6-2.1.62-1.66.6-1.4.6-.6.3" stroke="#000" stroke-width="2" fill="none"/>
        <path d="M210.23 155.56l-.56.7-1.57-1.23.1-.13z"/>
        <path d="M141.92 179.95L130.78 190l3.1-14.67z" fill="#fff"/>
        <path d="M143.6 179.77l-14.43 13.04 4.02-19.03zm-11.2 7.43l7.83-7.07-5.65-3.25z"/>
        <path d="M225 156.32l-.24 6.7-.6 5.3-.87 4.48-1.14 4.12-1.55 4.33-8.68 19.97-.7 2.56" stroke="#000" stroke-width="2" fill="none"/>
        <path d="M226 156.4l-2-.18.04-.4h2z"/>
        <path d="M215.75 205l-6.3 13.62-2.9-14.7z" fill="#fff"/>
        <path d="M217.23 204.17l-8.15 17.66-3.8-19.08zm-7.38 11.24l4.4-9.57-6.46-.77z"/>
        <path d="M241.52 155.5l3.5 4.43 4.23 4.64 5.66 5.32 28.35 23.15 2.84 3.1 2.16 2.75 1.73 2.57 1.42 2.5.68 1.43" stroke="#000" stroke-width="2" fill="none"/>
        <path d="M242.26 154.83l-1.5 1.33-.48-.55.3-.04 1.4-1.03z"/>
        <path d="M295.17 219.93l-7.48-13 9.06-1.92z" fill="#fff"/>
        <path d="M295.83 223.1l-9.7-16.87 11.77-2.48zm-6.6-15.48l5.27 9.14 1.12-10.5z"/>
        <path d="M120.8 233.15l-.36 1.84-.45 1.68-.56 1.58-.63 1.5-.7 1.4-.82 1.38-.9 1.34-1.06 1.3-1.2 1.3-1.36 1.32-1.6 1.33-1.9 1.37-2.32 1.44-2.9 1.55-3.9 1.73-5.93 2.17-29.74 9.1-3.4 1.5-2.48 1.32-1.93 1.2-1.55 1.12-1.3 1.07-1.08 1.05-.57.63" stroke="#000" fill="none"/>
        <path d="M121.55 232.76l-.3.6-.9-.44.17-.33z"/>
        <path d="M56.52 275.94l-8.55 12.32-.33-15z" fill="#fff"/>
        <path d="M57.32 275.66L47.5 289.8l-.37-17.22zm-8.9 11.05l7.3-10.48-7.56-2.28z"/>
        <path d="M129.17 233.3l-.07 3.14-.2 3.1-.34 3.04-.47 3.04-.62 3.06-.77 3.12-.93 3.2-1.14 3.37-1.4 3.6-1.77 3.98-2.3 4.65-3.43 6.2-15.24 25.68-2.06 4.13-1.52 3.45-1.2 3.05-.94 2.8-.77 2.6-.6 2.5-.5 2.43-.35 2.36-.26 2.33-.16 2.34-.02.65" stroke="#000" fill="none"/>
        <path d="M129.66 233.34l-1-.1.06-.45h1z"/>
        <path d="M93.85 345.96l-6.25-13.64 9.2-1.07z" fill="#fff"/>
        <path d="M94.03 347.57l-7.17-15.67 10.57-1.22zm-5.7-14.83l5.33 11.6 2.52-12.5z"/>
        <path d="M141.1 232l1.58 2.54 1.3 2.42 1.08 2.33.87 2.3.7 2.3.55 2.34.4 2.46.27 2.64.1 2.93-.12 3.45-.46 4.52-4.6 28.5-.03.56" stroke="#000" fill="none"/>
        <path d="M141.55 231.8l-.92.4-.2-.44.28-.1.6-.4z"/>
        <path d="M143.86 306.2l-5.7-13.88 9.26-.7z" fill="#fff"/>
        <path d="M143.98 307.82l-6.53-15.94 10.62-.8zm-5.08-15.05l4.84 11.82 3.03-12.42z"/>
        <path d="M202.2 256.77l-4.32 33.05-1.1 15.8-.22 15.05.5 11.7" stroke="#000" fill="none"/>
        <path d="M202.63 256.33h.13l-.07.5-1-.12.07-.5z"/>
        <path d="M197.9 347.33l-5.44-13.98 9.26-.52z" fill="#fff"/>
        <path d="M197.98 348.95l-6.24-16.06 10.63-.6zm-4.8-15.14l4.62 11.92 3.26-12.35z"/>
        <path d="M220.05 255.6l4.63 6.3 7.32 8.13 14.68 15.24 3.08 4.17 1.76 2.95" stroke="#000" fill="none"/>
        <path d="M220.44 255.3l-.78.62-.43-.53.55-.22.37-.25z"/>
        <path d="M256.28 306.5l-8.95-12.02 8.78-2.97z" fill="#fff"/>
        <path d="M256.8 308.04l-10.28-13.82 10.1-3.4zm-8.66-13.3l7.63 10.24-.15-12.77z"/>
        <path d="M295.83 263.58l.16 4.87.42 4.48.68 4.24.95 4.15 1.25 4.2 1.67 4.53 2.4 5.38 5.2 9.83 9.3 17.15 1.56 3.52" stroke="#000" fill="none"/>
        <path d="M296.33 263.52l-1 .1-.05-.55h1z"/>
        <path d="M324.43 340.04l-9.13-11.9 8.74-3.1z" fill="#fff"/>
        <path d="M324.97 341.57L314.5 327.9l10.02-3.55zm-8.85-13.2l7.77 10.15-.34-12.77z"/>
        <path d="M319 77.9l.67 6.98 1.36 7.14 6.1 22.38" stroke="#000" stroke-width="2" fill="none"/>
        <path d="M319 76.9l.85-.04.14.9-2 .3-.18-1.26z"/>
        <path d="M329.5 129.12l-6.85-13.35 9.15-1.47z" fill="#fff"/>
        <path d="M330 132.32L321.13 115l11.87-1.9zm-5.83-15.78l4.8 9.4 1.63-10.43z"/>
        <path d="M330 181.32l.14 4.37.38 3.8.57 3.4.73 3.1.9 2.9 1.1 2.84 1.3 2.82 1.64 3 2.22 3.48 4.74 6.35 6.93 9.1 2.23 3.5 1.63 2.98 1.32 2.83.96 2.5" stroke="#000" stroke-width="2" fill="none"/>
        <path d="M331 181.2l-2 .24-.07-.62h2z"/>
        <path d="M359.15 253.03l-6.82-13.36 9.16-1.46z" fill="#fff"/>
        <path d="M359.66 256.23l-8.85-17.33 11.9-1.9zm-5.8-15.8l4.8 9.4 1.62-10.4z"/>
        <path d="M341.58 65.08l2.58 1.82 2.85 1.8 3.2 1.78 3.66 1.78 4.28 1.8 5.25 1.9 6.98 2.08 13.66 3.23 20.33 4.6 5.28 1.56 3.66 1.32 2.82 1.18 2.28 1.1 1.9 1.07 1.64 1.03 1.43 1 1.25 1 1.13 1 1 1 .93 1 .84 1.04.7.95" stroke="#000" stroke-width="2" fill="none"/>
        <path d="M342.08 64.2l-1 1.74-.97-.56.8-1.05.3-.63z"/>
        <path d="M433.14 114.3l-8.28-12.5 8.94-2.5z" fill="#fff"/>
        <path d="M434 117.42l-10.73-16.23 11.6-3.22zm-7.54-15.04l5.8 8.8.48-10.54z"/>
        <path d="M423.66 155.83l.76 24.4 1.54 26.93" stroke="#000" stroke-width="2" fill="none"/>
        <path d="M424.65 155.8l-2 .07v-.54h2z"/>
        <path d="M426.82 222.13l-5.45-13.98 9.26-.53z" fill="#fff"/>
        <path d="M427 225.36l-7.06-18.13 12-.68zm-4.2-16.3l3.83 9.84 2.68-10.2z"/>
        <path d="M443.43 155.83l.06 1.4.16 1.32.3 1.27.38 1.23.5 1.24.67 1.24.83 1.3 1.06 1.37 1.36 1.5 1.82 1.65 2.56 1.94 3.93 2.46 8.05 4.1 21.83 10.24 3.92 2.47.64.5" stroke="#000" stroke-width="2" fill="none"/>
        <path d="M444.32 155.38l-1.78.9-.48-.95h2.24z"/>
        <path d="M498.9 203.26l-11.35-9.8 7.93-4.8z" fill="#fff"/>
        <path d="M500.58 206.03l-14.73-12.7 10.3-6.24zm-11.33-12.43l7.98 6.9-2.4-10.27z"/>
        <path d="M375.53 350.53c-1.4 2.37-.32 4.3 2.44 4.3H408c2.76 0 3.85-1.93 2.43-4.3l-14.88-24.9c-1.42-2.38-3.7-2.38-5.13 0zM435.8 390.7c-1.54 2.3-.56 4.15 2.2 4.15h30.03c2.76 0 3.75-1.85 2.2-4.14l-14.4-21.23c-1.56-2.28-4.07-2.28-5.62 0z" stroke="#000" fill="#a3d977"/>
        <path d="M433.63 258.17l.2 8.2.52 7.74.88 7.63 1.3 7.98 1.98 9.48 11.72 47.18.75 4.62" stroke="#000" fill="none"/>
        <path d="M434.13 258.15l-1 .04-.02-.53h1z"/>
        <path d="M452.82 365.86l-6.36-13.6 9.2-1.13z" fill="#fff"/>
        <path d="M453.02 367.47l-7.3-15.6 10.56-1.32zm-5.82-14.78l5.42 11.55 2.42-12.54z"/>
        <path d="M425.16 258.17l-.1 2.45-.26 2.34-.44 2.28-.62 2.25-.82 2.28-1.07 2.37-1.38 2.55-1.86 2.86-2.7 3.54-5.65 6.28-10 10.74-2.45 3.2-1.63 2.52-1.2 2.18-.56 1.27" stroke="#000" fill="none"/>
        <path d="M425.64 258.3l-.97-.25.1-.38h1.03z"/>
        <path d="M399 308.14l-5.87 13.8-3.37-14.6z" fill="#fff"/>
        <path d="M399.72 307.7l-6.74 15.86-3.87-16.8zm-6.45 12.63l5-11.75-7.87-.7z"/>
        <path d="M479.68 331.12c-1.5 2.33-.46 4.2 2.3 4.2h32.84c2.76 0 3.8-1.87 2.3-4.2l-16.02-25.06c-1.5-2.32-3.9-2.32-5.4 0zM545.87 370.2c-1.55 2.28-.57 4.13 2.2 4.13h30.02c2.76 0 3.74-1.85 2.2-4.13l-14.42-21.25c-1.55-2.28-4.06-2.28-5.6 0z" stroke="#000" fill="#a3d977"/>
        <path d="M517.1 230.6l4.02 2.85 3.6 2.78 3.26 2.75 2.96 2.72 2.7 2.72 2.5 2.73 2.33 2.77 2.17 2.82 2.02 2.88 1.9 3 1.8 3.1 1.73 3.26 1.62 3.47 1.56 3.72 1.5 4.07 1.45 4.5 1.4 5.14 1.4 6.05 1.37 7.54 1.46 10.56 1.78 20.36" stroke="#000" fill="none"/>
        <path d="M517.4 230.2l-.6.8-.38-.3.56-.82z"/>
        <path d="M562.94 345.34l-5.86-13.8 9.24-.82z" fill="#fff"/>
        <path d="M563.08 346.95l-6.73-15.86 10.6-.94zm-5.27-15l5 11.77 2.88-12.44z"/>
        <path d="M500.58 238.83l-.55 14-2.83 34.52v.12" stroke="#000" fill="none"/>
        <path d="M501.08 238.86l-1-.05.02-.47h1z"/>
        <path d="M498.28 302.42l-5.65-13.9 9.25-.67z" fill="#fff"/>
        <path d="M498.4 304.03l-6.5-15.96 10.63-.76zm-5.05-15.06l4.82 11.83 3.06-12.4z"/>
    </g>
</svg>