<svg xmlns="http://www.w3.org/2000/svg" xmlns:xlink="http://www.w3.org/1999/xlink" xmlns:lucid="lucid" width="867" height="648">
    <g transform="translate(-81 -345)" lucid:page-tab-id="0_0">
        <path d="M160 375c0-2.76 2.24-5 5-5h190c2.76 0 5 2.24 5 5v50c0 2.76-2.24 5-5 5H165c-2.76 0-5-2.24-5-5z" stroke="#000" fill="#fff"/>
        <use xlink:href="#a" transform="matrix(1,0,0,1,168,378) translate(57.95061728395061 25.555555555555557)"/>
        <path d="M440 375c0-2.76 2.24-5 5-5h190c2.76 0 5 2.24 5 5v30c0 2.76-2.24 5-5 5H445c-2.76 0-5-2.24-5-5z" stroke="#000" fill="#a3d977"/>
        <use xlink:href="#b" transform="matrix(1,0,0,1,448,378) translate(48.09876543209876 15.555555555555555)"/>
        <path d="M439.5 390h-62.38" stroke="#000" fill="none"/>
        <path d="M440 390.5h-.5v-1h.5z"/>
        <path d="M376.38 394.64L362.12 390l14.26-4.64z" fill="#fff"/>
        <path d="M376.88 395.32L360.5 390l16.38-5.32zM363.74 390l12.14 3.95v-7.9z"/>
        <path d="M730 375c0-2.76 2.24-5 5-5h190c2.76 0 5 2.24 5 5v30c0 2.76-2.24 5-5 5H735c-2.76 0-5-2.24-5-5z" stroke="#000" fill="#ff8f80"/>
        <use xlink:href="#c" transform="matrix(1,0,0,1,738,378) translate(67.87654320987654 15.555555555555555)"/>
        <path d="M729.5 390h-72.38" stroke="#000" fill="none"/>
        <path d="M730 390.5h-.5v-1h.5z"/>
        <path d="M656.38 394.64L642.12 390l14.26-4.64z" fill="#fff"/>
        <path d="M656.88 395.32L640.5 390l16.38-5.32zM643.74 390l12.14 3.95v-7.9z"/>
        <path d="M440 705c0-2.76 2.24-5 5-5h190c2.76 0 5 2.24 5 5v30c0 2.76-2.24 5-5 5H445c-2.76 0-5-2.24-5-5z" stroke="#000" fill="#99d2f2"/>
        <use xlink:href="#d" transform="matrix(1,0,0,1,448,708) translate(51.53086419753086 15.555555555555555)"/>
        <path d="M439.5 720H405c-2.76 0-5-2.24-5-5V424.33c0-2.76-2.24-5-5-5h-17.88" stroke="#000" fill="none"/>
        <path d="M440 720.5h-.5v-1h.5z"/>
        <path d="M376.38 423.97l-14.26-4.64 14.26-4.63z" fill="#fff"/>
        <path d="M376.88 424.66l-16.38-5.33 16.38-5.32zm-13.14-5.33l12.14 3.95v-7.9z"/>
        <path d="M160 525c0-2.76 2.24-5 5-5h190c2.76 0 5 2.24 5 5v30c0 2.76-2.24 5-5 5H165c-2.76 0-5-2.24-5-5z" stroke="#000" fill="#fff"/>
        <use xlink:href="#e" transform="matrix(1,0,0,1,168,528) translate(56.5432098765432 15.555555555555555)"/>
        <path d="M160 595c0-2.76 2.24-5 5-5h190c2.76 0 5 2.24 5 5v30c0 2.76-2.24 5-5 5H165c-2.76 0-5-2.24-5-5z" stroke="#000" fill="#fff"/>
        <use xlink:href="#f" transform="matrix(1,0,0,1,168,598) translate(31.876543209876537 15.555555555555555)"/>
        <path d="M160 795c0-2.76 2.24-5 5-5h190c2.76 0 5 2.24 5 5v30c0 2.76-2.24 5-5 5H165c-2.76 0-5-2.24-5-5z" stroke="#000" fill="#fff"/>
        <use xlink:href="#g" transform="matrix(1,0,0,1,168,798) translate(24.962962962962948 15.555555555555555)"/>
        <path d="M730 635c0-2.76 2.24-5 5-5h190c2.76 0 5 2.24 5 5v30c0 2.76-2.24 5-5 5H735c-2.76 0-5-2.24-5-5z" stroke="#000" fill="#ffdf71"/>
        <use xlink:href="#h" transform="matrix(1,0,0,1,738,638) translate(39.259259259259245 15.555555555555555)"/>
        <path d="M440 635c0-2.76 2.24-5 5-5h190c2.76 0 5 2.24 5 5v30c0 2.76-2.24 5-5 5H445c-2.76 0-5-2.24-5-5z" stroke="#000" fill="#ffdf71"/>
        <use xlink:href="#i" transform="matrix(1,0,0,1,448,638) translate(19.481481481481467 15.555555555555555)"/>
        <path d="M781.14 629.5V427.12" stroke="#000" fill="none"/>
        <path d="M781.64 630h-1v-.5h1z"/>
        <path d="M785.77 426.38h-9.27l4.64-14.26z" fill="#fff"/>
        <path d="M786.46 426.88h-10.64l5.32-16.38zm-9.27-1h7.9l-3.96-12.14z"/>
        <path d="M495.1 629.5V427.12" stroke="#000" fill="none"/>
        <path d="M495.6 630h-1v-.5h1z"/>
        <path d="M499.73 426.38h-9.27l4.63-14.26z" fill="#fff"/>
        <path d="M500.4 426.88h-10.63l5.32-16.38zm-9.26-1h7.9l-3.95-12.14z"/>
        <path d="M159.5 540H135c-2.76 0-5-2.24-5-5V421.67c0-2.76 2.24-5 5-5h7.88" stroke="#000" fill="none"/>
        <path d="M160 540.5h-.5v-1h.5z"/>
        <path d="M157.88 416.67l-14.26 4.63v-9.27z" fill="#fff"/>
        <path d="M159.5 416.67L143.12 422v-10.66zm-15.38 3.94l12.14-3.93-12.14-3.95z"/>
        <path d="M440 935c0-2.76 2.24-5 5-5h190c2.76 0 5 2.24 5 5v30c0 2.76-2.24 5-5 5H445c-2.76 0-5-2.24-5-5z" stroke="#000" fill="#ffdf71"/>
        <use xlink:href="#j" transform="matrix(1,0,0,1,448,938) translate(22.91358024691357 15.555555555555555)"/>
        <path d="M499.14 929.5V757.12" stroke="#000" fill="none"/>
        <path d="M499.64 930h-1v-.5h1z"/>
        <path d="M503.77 756.38h-9.27l4.64-14.26z" fill="#fff"/>
        <path d="M504.46 756.88h-10.64l5.32-16.38zm-9.27-1h7.9l-3.96-12.14z"/>
        <path d="M159.5 810H115c-2.76 0-5-2.24-5-5V388c0-2.76 2.24-5 5-5h27.88" stroke="#000" fill="none"/>
        <path d="M160 810.5h-.5v-1h.5z"/>
        <path d="M157.88 383l-14.26 4.64v-9.28z" fill="#fff"/>
        <path d="M159.5 383l-16.38 5.32v-10.64zm-15.38 3.95l12.14-3.95-12.14-3.95z"/>
        <path d="M530 770c0-2.76 2.24-5 5-5h150c2.76 0 5 2.24 5 5v140c0 2.76-2.24 5-5 5H535c-2.76 0-5-2.24-5-5z" fill="#fff"/>
        <path d="M546 765h-11c-2.76 0-5 2.24-5 5v140c0 2.76 2.24 5 5 5h11" stroke="#000" stroke-width="2" fill="none"/>
        <use xlink:href="#k" transform="matrix(1,0,0,1,540,765) translate(0 19.41)"/>
        <use xlink:href="#l" transform="matrix(1,0,0,1,540,765) translate(0 41.01)"/>
        <use xlink:href="#m" transform="matrix(1,0,0,1,540,765) translate(0 62.61)"/>
        <use xlink:href="#n" transform="matrix(1,0,0,1,540,765) translate(0 84.21000000000001)"/>
        <use xlink:href="#o" transform="matrix(1,0,0,1,540,765) translate(0 105.81)"/>
        <use xlink:href="#p" transform="matrix(1,0,0,1,540,765) translate(0 127.41)"/>
        <path d="M520 435c0-2.76 2.24-5 5-5h150c2.76 0 5 2.24 5 5v150c0 2.76-2.24 5-5 5H525c-2.76 0-5-2.24-5-5z" fill="#fff"/>
        <path d="M536 430h-11c-2.76 0-5 2.24-5 5v150c0 2.76 2.24 5 5 5h11" stroke="#000" stroke-width="2" fill="none"/>
        <use xlink:href="#q" transform="matrix(1,0,0,1,530,430) translate(0 29.4)"/>
        <use xlink:href="#r" transform="matrix(1,0,0,1,530,430) translate(0 51)"/>
        <use xlink:href="#s" transform="matrix(1,0,0,1,530,430) translate(0 72.60000000000001)"/>
        <use xlink:href="#t" transform="matrix(1,0,0,1,530,430) translate(0 94.20000000000002)"/>
        <use xlink:href="#u" transform="matrix(1,0,0,1,530,430) translate(0 115.80000000000001)"/>
        <use xlink:href="#v" transform="matrix(1,0,0,1,530,430) translate(0 137.4)"/>
        <path d="M830 429.63c0-2.77 2.24-5 5-5h150c2.76 0 5 2.23 5 5V605c0 2.76-2.24 5-5 5H835c-2.76 0-5-2.24-5-5z" fill="#fff"/>
        <path d="M846 424.63h-11c-2.76 0-5 2.23-5 5V605c0 2.76 2.24 5 5 5h11" stroke="#000" stroke-width="2" fill="none"/>
        <use xlink:href="#w" transform="matrix(1,0,0,1,840,424.625) translate(0 19.41)"/>
        <use xlink:href="#x" transform="matrix(1,0,0,1,840,424.625) translate(0 41.01)"/>
        <use xlink:href="#y" transform="matrix(1,0,0,1,840,424.625) translate(0 62.61)"/>
        <use xlink:href="#z" transform="matrix(1,0,0,1,840,424.625) translate(0 84.21000000000001)"/>
        <use xlink:href="#A" transform="matrix(1,0,0,1,840,424.625) translate(0 105.81)"/>
        <use xlink:href="#B" transform="matrix(1,0,0,1,840,424.625) translate(0 127.41)"/>
        <use xlink:href="#C" transform="matrix(1,0,0,1,840,424.625) translate(0 149.01)"/>
        <use xlink:href="#p" transform="matrix(1,0,0,1,840,424.625) translate(0 170.60999999999999)"/>
        <path d="M180 865c0-2.76 2.24-5 5-5h150c2.76 0 5 2.24 5 5v94c0 2.76-2.24 5-5 5H185c-2.76 0-5-2.24-5-5z" fill="#fff"/>
        <path d="M196 860h-11c-2.76 0-5 2.24-5 5v94c0 2.76 2.24 5 5 5h11" stroke="#000" stroke-width="2" fill="none"/>
        <g>
            <use xlink:href="#D" transform="matrix(1,0,0,1,190,860) translate(0 19.41)"/>
            <use xlink:href="#E" transform="matrix(1,0,0,1,190,860) translate(0 41.01)"/>
            <use xlink:href="#F" transform="matrix(1,0,0,1,190,860) translate(0 62.61)"/>
            <use xlink:href="#p" transform="matrix(1,0,0,1,190,860) translate(0 84.21000000000001)"/>
        </g>
        <path d="M180 655c0-2.76 2.24-5 5-5h150c2.76 0 5 2.24 5 5v94c0 2.76-2.24 5-5 5H185c-2.76 0-5-2.24-5-5z" fill="#fff"/>
        <path d="M196 650h-11c-2.76 0-5 2.24-5 5v94c0 2.76 2.24 5 5 5h11" stroke="#000" stroke-width="2" fill="none"/>
        <g>
            <use xlink:href="#G" transform="matrix(1,0,0,1,190,650) translate(0 19.41)"/>
            <use xlink:href="#H" transform="matrix(1,0,0,1,190,650) translate(0 41.01)"/>
            <use xlink:href="#I" transform="matrix(1,0,0,1,190,650) translate(0 62.61)"/>
            <use xlink:href="#J" transform="matrix(1,0,0,1,190,650) translate(0 84.21000000000001)"/>
        </g>
        <path d="M159.5 610H125c-2.76 0-5-2.24-5-5V405c0-2.76 2.24-5 5-5h17.88" stroke="#000" fill="none"/>
        <path d="M160 610.5h-.5v-1h.5z"/>
        <path d="M157.88 400l-14.26 4.64v-9.28z" fill="#fff"/>
        <path d="M159.5 400l-16.38 5.32v-10.64zm-15.38 3.95l12.14-3.95-12.14-3.95z"/>
        <path d="M830 705c0-2.76 2.24-5 5-5h90c2.76 0 5 2.24 5 5v60.38c0 2.76-2.24 5-5 5h-90c-2.76 0-5-2.24-5-5z" fill="#fff"/>
        <path d="M840 700h-5c-2.76 0-5 2.24-5 5v60.38c0 2.76 2.24 5 5 5h5" stroke="#000" stroke-width="2" fill="none"/>
        <g>
            <use xlink:href="#K" transform="matrix(1,0,0,1,840,700) translate(0 27.7125)"/>
            <use xlink:href="#L" transform="matrix(1,0,0,1,840,700) translate(0 49.3125)"/>
        </g>
        <defs>
            <path d="M205 0l-28-72H64L36 0H1l101-248h38L239 0h-34zm-38-99l-47-123c-12 45-31 82-46 123h93" id="M"/>
            <path d="M135-143c-3-34-86-38-87 0 15 53 115 12 119 90S17 21 10-45l28-5c4 36 97 45 98 0-10-56-113-15-118-90-4-57 82-63 122-42 12 7 21 19 24 35" id="N"/>
            <path d="M59-47c-2 24 18 29 38 22v24C64 9 27 4 27-40v-127H5v-23h24l9-43h21v43h35v23H59v120" id="O"/>
            <path d="M190 0L58-211 59 0H30v-248h39L202-35l-2-213h31V0h-41" id="P"/>
            <path d="M100-194c62-1 85 37 85 99 1 63-27 99-86 99S16-35 15-95c0-66 28-99 85-99zM99-20c44 1 53-31 53-75 0-43-8-75-51-75s-53 32-53 75 10 74 51 75" id="Q"/>
            <path d="M85-194c31 0 48 13 60 33l-1-100h32l1 261h-30c-2-10 0-23-3-31C134-8 116 4 85 4 32 4 16-35 15-94c0-66 23-100 70-100zm9 24c-40 0-46 34-46 75 0 40 6 74 45 74 42 0 51-32 51-76 0-42-9-74-50-73" id="R"/>
            <path d="M100-194c63 0 86 42 84 106H49c0 40 14 67 53 68 26 1 43-12 49-29l28 8c-11 28-37 45-77 45C44 4 14-33 15-96c1-61 26-98 85-98zm52 81c6-60-76-77-97-28-3 7-6 17-6 28h103" id="S"/>
            <g id="a">
                <use transform="matrix(0.04938271604938272,0,0,0.04938271604938272,0,0)" xlink:href="#M"/>
                <use transform="matrix(0.04938271604938272,0,0,0.04938271604938272,11.851851851851853,0)" xlink:href="#N"/>
                <use transform="matrix(0.04938271604938272,0,0,0.04938271604938272,20.74074074074074,0)" xlink:href="#O"/>
                <use transform="matrix(0.04938271604938272,0,0,0.04938271604938272,25.679012345679016,0)" xlink:href="#P"/>
                <use transform="matrix(0.04938271604938272,0,0,0.04938271604938272,38.46913580246914,0)" xlink:href="#Q"/>
                <use transform="matrix(0.04938271604938272,0,0,0.04938271604938272,48.345679012345684,0)" xlink:href="#R"/>
                <use transform="matrix(0.04938271604938272,0,0,0.04938271604938272,58.22222222222223,0)" xlink:href="#S"/>
            </g>
            <path d="M30 0v-248h187v28H63v79h144v27H63v87h162V0H30" id="T"/>
            <path d="M141 0L90-78 38 0H4l68-98-65-92h35l48 74 47-74h35l-64 92 68 98h-35" id="U"/>
            <path d="M115-194c55 1 70 41 70 98S169 2 115 4C84 4 66-9 55-30l1 105H24l-1-265h31l2 30c10-21 28-34 59-34zm-8 174c40 0 45-34 45-75s-6-73-45-74c-42 0-51 32-51 76 0 43 10 73 51 73" id="V"/>
            <path d="M114-163C36-179 61-72 57 0H25l-1-190h30c1 12-1 29 2 39 6-27 23-49 58-41v29" id="W"/>
            <path d="M24-231v-30h32v30H24zM24 0v-190h32V0H24" id="X"/>
            <path d="M117-194c89-4 53 116 60 194h-32v-121c0-31-8-49-39-48C34-167 62-67 57 0H25l-1-190h30c1 10-1 24 2 32 11-22 29-35 61-36" id="Y"/>
            <g id="b">
                <use transform="matrix(0.04938271604938272,0,0,0.04938271604938272,0,0)" xlink:href="#T"/>
                <use transform="matrix(0.04938271604938272,0,0,0.04938271604938272,11.851851851851853,0)" xlink:href="#U"/>
                <use transform="matrix(0.04938271604938272,0,0,0.04938271604938272,20.74074074074074,0)" xlink:href="#V"/>
                <use transform="matrix(0.04938271604938272,0,0,0.04938271604938272,30.617283950617285,0)" xlink:href="#W"/>
                <use transform="matrix(0.04938271604938272,0,0,0.04938271604938272,36.49382716049383,0)" xlink:href="#S"/>
                <use transform="matrix(0.04938271604938272,0,0,0.04938271604938272,46.370370370370374,0)" xlink:href="#N"/>
                <use transform="matrix(0.04938271604938272,0,0,0.04938271604938272,55.25925925925927,0)" xlink:href="#N"/>
                <use transform="matrix(0.04938271604938272,0,0,0.04938271604938272,64.14814814814815,0)" xlink:href="#X"/>
                <use transform="matrix(0.04938271604938272,0,0,0.04938271604938272,68.0493827160494,0)" xlink:href="#Q"/>
                <use transform="matrix(0.04938271604938272,0,0,0.04938271604938272,77.92592592592594,0)" xlink:href="#Y"/>
            </g>
            <path d="M30 0v-248h33v221h125V0H30" id="Z"/>
            <path d="M141-36C126-15 110 5 73 4 37 3 15-17 15-53c-1-64 63-63 125-63 3-35-9-54-41-54-24 1-41 7-42 31l-33-3c5-37 33-52 76-52 45 0 72 20 72 64v82c-1 20 7 32 28 27v20c-31 9-61-2-59-35zM48-53c0 20 12 33 32 33 41-3 63-29 60-74-43 2-92-5-92 41" id="aa"/>
            <path d="M24 0v-261h32V0H24" id="ab"/>
            <g id="c">
                <use transform="matrix(0.04938271604938272,0,0,0.04938271604938272,0,0)" xlink:href="#Z"/>
                <use transform="matrix(0.04938271604938272,0,0,0.04938271604938272,9.876543209876544,0)" xlink:href="#X"/>
                <use transform="matrix(0.04938271604938272,0,0,0.04938271604938272,13.777777777777779,0)" xlink:href="#O"/>
                <use transform="matrix(0.04938271604938272,0,0,0.04938271604938272,18.71604938271605,0)" xlink:href="#S"/>
                <use transform="matrix(0.04938271604938272,0,0,0.04938271604938272,28.592592592592595,0)" xlink:href="#W"/>
                <use transform="matrix(0.04938271604938272,0,0,0.04938271604938272,34.46913580246914,0)" xlink:href="#aa"/>
                <use transform="matrix(0.04938271604938272,0,0,0.04938271604938272,44.345679012345684,0)" xlink:href="#ab"/>
            </g>
            <path d="M185-189c-5-48-123-54-124 2 14 75 158 14 163 119 3 78-121 87-175 55-17-10-28-26-33-46l33-7c5 56 141 63 141-1 0-78-155-14-162-118-5-82 145-84 179-34 5 7 8 16 11 25" id="ac"/>
            <path d="M210-169c-67 3-38 105-44 169h-31v-121c0-29-5-50-35-48C34-165 62-65 56 0H25l-1-190h30c1 10-1 24 2 32 10-44 99-50 107 0 11-21 27-35 58-36 85-2 47 119 55 194h-31v-121c0-29-5-49-35-48" id="ad"/>
            <g id="d">
                <use transform="matrix(0.04938271604938272,0,0,0.04938271604938272,0,0)" xlink:href="#ac"/>
                <use transform="matrix(0.04938271604938272,0,0,0.04938271604938272,11.851851851851853,0)" xlink:href="#O"/>
                <use transform="matrix(0.04938271604938272,0,0,0.04938271604938272,16.790123456790127,0)" xlink:href="#aa"/>
                <use transform="matrix(0.04938271604938272,0,0,0.04938271604938272,26.666666666666668,0)" xlink:href="#O"/>
                <use transform="matrix(0.04938271604938272,0,0,0.04938271604938272,31.60493827160494,0)" xlink:href="#S"/>
                <use transform="matrix(0.04938271604938272,0,0,0.04938271604938272,41.48148148148149,0)" xlink:href="#ad"/>
                <use transform="matrix(0.04938271604938272,0,0,0.04938271604938272,56.24691358024693,0)" xlink:href="#S"/>
                <use transform="matrix(0.04938271604938272,0,0,0.04938271604938272,66.12345679012347,0)" xlink:href="#Y"/>
                <use transform="matrix(0.04938271604938272,0,0,0.04938271604938272,76.00000000000001,0)" xlink:href="#O"/>
            </g>
            <path d="M63-220v92h138v28H63V0H30v-248h175v28H63" id="ae"/>
            <g id="e">
                <use transform="matrix(0.04938271604938272,0,0,0.04938271604938272,0,0)" xlink:href="#ae"/>
                <use transform="matrix(0.04938271604938272,0,0,0.04938271604938272,10.814814814814815,0)" xlink:href="#X"/>
                <use transform="matrix(0.04938271604938272,0,0,0.04938271604938272,14.71604938271605,0)" xlink:href="#ab"/>
                <use transform="matrix(0.04938271604938272,0,0,0.04938271604938272,18.617283950617285,0)" xlink:href="#S"/>
                <use transform="matrix(0.04938271604938272,0,0,0.04938271604938272,28.49382716049383,0)" xlink:href="#P"/>
                <use transform="matrix(0.04938271604938272,0,0,0.04938271604938272,41.283950617283956,0)" xlink:href="#Q"/>
                <use transform="matrix(0.04938271604938272,0,0,0.04938271604938272,51.1604938271605,0)" xlink:href="#R"/>
                <use transform="matrix(0.04938271604938272,0,0,0.04938271604938272,61.037037037037045,0)" xlink:href="#S"/>
            </g>
            <path d="M212-179c-10-28-35-45-73-45-59 0-87 40-87 99 0 60 29 101 89 101 43 0 62-24 78-52l27 14C228-24 195 4 139 4 59 4 22-46 18-125c-6-104 99-153 187-111 19 9 31 26 39 46" id="af"/>
            <path d="M96-169c-40 0-48 33-48 73s9 75 48 75c24 0 41-14 43-38l32 2c-6 37-31 61-74 61-59 0-76-41-82-99-10-93 101-131 147-64 4 7 5 14 7 22l-32 3c-4-21-16-35-41-35" id="ag"/>
            <g id="f">
                <use transform="matrix(0.04938271604938272,0,0,0.04938271604938272,0,0)" xlink:href="#af"/>
                <use transform="matrix(0.04938271604938272,0,0,0.04938271604938272,12.790123456790125,0)" xlink:href="#Q"/>
                <use transform="matrix(0.04938271604938272,0,0,0.04938271604938272,22.66666666666667,0)" xlink:href="#ab"/>
                <use transform="matrix(0.04938271604938272,0,0,0.04938271604938272,26.567901234567902,0)" xlink:href="#ab"/>
                <use transform="matrix(0.04938271604938272,0,0,0.04938271604938272,30.46913580246914,0)" xlink:href="#S"/>
                <use transform="matrix(0.04938271604938272,0,0,0.04938271604938272,40.345679012345684,0)" xlink:href="#ag"/>
                <use transform="matrix(0.04938271604938272,0,0,0.04938271604938272,49.23456790123457,0)" xlink:href="#O"/>
                <use transform="matrix(0.04938271604938272,0,0,0.04938271604938272,54.17283950617284,0)" xlink:href="#X"/>
                <use transform="matrix(0.04938271604938272,0,0,0.04938271604938272,58.074074074074076,0)" xlink:href="#Q"/>
                <use transform="matrix(0.04938271604938272,0,0,0.04938271604938272,67.95061728395062,0)" xlink:href="#Y"/>
                <use transform="matrix(0.04938271604938272,0,0,0.04938271604938272,77.82716049382717,0)" xlink:href="#P"/>
                <use transform="matrix(0.04938271604938272,0,0,0.04938271604938272,90.61728395061729,0)" xlink:href="#Q"/>
                <use transform="matrix(0.04938271604938272,0,0,0.04938271604938272,100.49382716049384,0)" xlink:href="#R"/>
                <use transform="matrix(0.04938271604938272,0,0,0.04938271604938272,110.37037037037038,0)" xlink:href="#S"/>
            </g>
            <path d="M179-190L93 31C79 59 56 82 12 73V49c39 6 53-20 64-50L1-190h34L92-34l54-156h33" id="ah"/>
            <path d="M30-248c118-7 216 8 213 122C240-48 200 0 122 0H30v-248zM63-27c89 8 146-16 146-99s-60-101-146-95v194" id="ai"/>
            <g id="g">
                <use transform="matrix(0.04938271604938272,0,0,0.04938271604938272,0,0)" xlink:href="#T"/>
                <use transform="matrix(0.04938271604938272,0,0,0.04938271604938272,11.851851851851853,0)" xlink:href="#Y"/>
                <use transform="matrix(0.04938271604938272,0,0,0.04938271604938272,21.7283950617284,0)" xlink:href="#O"/>
                <use transform="matrix(0.04938271604938272,0,0,0.04938271604938272,26.666666666666668,0)" xlink:href="#X"/>
                <use transform="matrix(0.04938271604938272,0,0,0.04938271604938272,30.567901234567906,0)" xlink:href="#O"/>
                <use transform="matrix(0.04938271604938272,0,0,0.04938271604938272,35.50617283950618,0)" xlink:href="#ah"/>
                <use transform="matrix(0.04938271604938272,0,0,0.04938271604938272,44.39506172839506,0)" xlink:href="#ai"/>
                <use transform="matrix(0.04938271604938272,0,0,0.04938271604938272,57.18518518518519,0)" xlink:href="#S"/>
                <use transform="matrix(0.04938271604938272,0,0,0.04938271604938272,67.06172839506173,0)" xlink:href="#ag"/>
                <use transform="matrix(0.04938271604938272,0,0,0.04938271604938272,75.95061728395062,0)" xlink:href="#ab"/>
                <use transform="matrix(0.04938271604938272,0,0,0.04938271604938272,79.85185185185186,0)" xlink:href="#aa"/>
                <use transform="matrix(0.04938271604938272,0,0,0.04938271604938272,89.7283950617284,0)" xlink:href="#W"/>
                <use transform="matrix(0.04938271604938272,0,0,0.04938271604938272,95.60493827160495,0)" xlink:href="#aa"/>
                <use transform="matrix(0.04938271604938272,0,0,0.04938271604938272,105.4814814814815,0)" xlink:href="#O"/>
                <use transform="matrix(0.04938271604938272,0,0,0.04938271604938272,110.41975308641979,0)" xlink:href="#X"/>
                <use transform="matrix(0.04938271604938272,0,0,0.04938271604938272,114.32098765432102,0)" xlink:href="#Q"/>
                <use transform="matrix(0.04938271604938272,0,0,0.04938271604938272,124.19753086419756,0)" xlink:href="#Y"/>
            </g>
            <path d="M30-248c87 1 191-15 191 75 0 78-77 80-158 76V0H30v-248zm33 125c57 0 124 11 124-50 0-59-68-47-124-48v98" id="aj"/>
            <g id="h">
                <use transform="matrix(0.04938271604938272,0,0,0.04938271604938272,0,0)" xlink:href="#aj"/>
                <use transform="matrix(0.04938271604938272,0,0,0.04938271604938272,11.851851851851853,0)" xlink:href="#aa"/>
                <use transform="matrix(0.04938271604938272,0,0,0.04938271604938272,21.7283950617284,0)" xlink:href="#O"/>
                <use transform="matrix(0.04938271604938272,0,0,0.04938271604938272,26.666666666666668,0)" xlink:href="#O"/>
                <use transform="matrix(0.04938271604938272,0,0,0.04938271604938272,31.60493827160494,0)" xlink:href="#S"/>
                <use transform="matrix(0.04938271604938272,0,0,0.04938271604938272,41.48148148148149,0)" xlink:href="#W"/>
                <use transform="matrix(0.04938271604938272,0,0,0.04938271604938272,47.35802469135803,0)" xlink:href="#Y"/>
                <use transform="matrix(0.04938271604938272,0,0,0.04938271604938272,57.23456790123457,0)" xlink:href="#Z"/>
                <use transform="matrix(0.04938271604938272,0,0,0.04938271604938272,67.11111111111111,0)" xlink:href="#X"/>
                <use transform="matrix(0.04938271604938272,0,0,0.04938271604938272,71.01234567901236,0)" xlink:href="#O"/>
                <use transform="matrix(0.04938271604938272,0,0,0.04938271604938272,75.95061728395063,0)" xlink:href="#S"/>
                <use transform="matrix(0.04938271604938272,0,0,0.04938271604938272,85.82716049382718,0)" xlink:href="#W"/>
                <use transform="matrix(0.04938271604938272,0,0,0.04938271604938272,91.70370370370372,0)" xlink:href="#aa"/>
                <use transform="matrix(0.04938271604938272,0,0,0.04938271604938272,101.58024691358028,0)" xlink:href="#ab"/>
            </g>
            <g id="i">
                <use transform="matrix(0.04938271604938272,0,0,0.04938271604938272,0,0)" xlink:href="#aj"/>
                <use transform="matrix(0.04938271604938272,0,0,0.04938271604938272,11.851851851851853,0)" xlink:href="#aa"/>
                <use transform="matrix(0.04938271604938272,0,0,0.04938271604938272,21.7283950617284,0)" xlink:href="#O"/>
                <use transform="matrix(0.04938271604938272,0,0,0.04938271604938272,26.666666666666668,0)" xlink:href="#O"/>
                <use transform="matrix(0.04938271604938272,0,0,0.04938271604938272,31.60493827160494,0)" xlink:href="#S"/>
                <use transform="matrix(0.04938271604938272,0,0,0.04938271604938272,41.48148148148149,0)" xlink:href="#W"/>
                <use transform="matrix(0.04938271604938272,0,0,0.04938271604938272,47.35802469135803,0)" xlink:href="#Y"/>
                <use transform="matrix(0.04938271604938272,0,0,0.04938271604938272,57.23456790123457,0)" xlink:href="#T"/>
                <use transform="matrix(0.04938271604938272,0,0,0.04938271604938272,69.08641975308643,0)" xlink:href="#U"/>
                <use transform="matrix(0.04938271604938272,0,0,0.04938271604938272,77.97530864197532,0)" xlink:href="#V"/>
                <use transform="matrix(0.04938271604938272,0,0,0.04938271604938272,87.85185185185186,0)" xlink:href="#W"/>
                <use transform="matrix(0.04938271604938272,0,0,0.04938271604938272,93.7283950617284,0)" xlink:href="#S"/>
                <use transform="matrix(0.04938271604938272,0,0,0.04938271604938272,103.60493827160495,0)" xlink:href="#N"/>
                <use transform="matrix(0.04938271604938272,0,0,0.04938271604938272,112.49382716049384,0)" xlink:href="#N"/>
                <use transform="matrix(0.04938271604938272,0,0,0.04938271604938272,121.38271604938272,0)" xlink:href="#X"/>
                <use transform="matrix(0.04938271604938272,0,0,0.04938271604938272,125.28395061728396,0)" xlink:href="#Q"/>
                <use transform="matrix(0.04938271604938272,0,0,0.04938271604938272,135.1604938271605,0)" xlink:href="#Y"/>
            </g>
            <g id="j">
                <use transform="matrix(0.04938271604938272,0,0,0.04938271604938272,0,0)" xlink:href="#aj"/>
                <use transform="matrix(0.04938271604938272,0,0,0.04938271604938272,11.851851851851853,0)" xlink:href="#aa"/>
                <use transform="matrix(0.04938271604938272,0,0,0.04938271604938272,21.7283950617284,0)" xlink:href="#O"/>
                <use transform="matrix(0.04938271604938272,0,0,0.04938271604938272,26.666666666666668,0)" xlink:href="#O"/>
                <use transform="matrix(0.04938271604938272,0,0,0.04938271604938272,31.60493827160494,0)" xlink:href="#S"/>
                <use transform="matrix(0.04938271604938272,0,0,0.04938271604938272,41.48148148148149,0)" xlink:href="#W"/>
                <use transform="matrix(0.04938271604938272,0,0,0.04938271604938272,47.35802469135803,0)" xlink:href="#Y"/>
                <use transform="matrix(0.04938271604938272,0,0,0.04938271604938272,57.23456790123457,0)" xlink:href="#ac"/>
                <use transform="matrix(0.04938271604938272,0,0,0.04938271604938272,69.08641975308643,0)" xlink:href="#O"/>
                <use transform="matrix(0.04938271604938272,0,0,0.04938271604938272,74.02469135802471,0)" xlink:href="#aa"/>
                <use transform="matrix(0.04938271604938272,0,0,0.04938271604938272,83.90123456790126,0)" xlink:href="#O"/>
                <use transform="matrix(0.04938271604938272,0,0,0.04938271604938272,88.83950617283952,0)" xlink:href="#S"/>
                <use transform="matrix(0.04938271604938272,0,0,0.04938271604938272,98.71604938271606,0)" xlink:href="#ad"/>
                <use transform="matrix(0.04938271604938272,0,0,0.04938271604938272,113.4814814814815,0)" xlink:href="#S"/>
                <use transform="matrix(0.04938271604938272,0,0,0.04938271604938272,123.35802469135804,0)" xlink:href="#Y"/>
                <use transform="matrix(0.04938271604938272,0,0,0.04938271604938272,133.23456790123458,0)" xlink:href="#O"/>
            </g>
            <path d="M160-131c35 5 61 23 61 61C221 17 115-2 30 0v-248c76 3 177-17 177 60 0 33-19 50-47 57zm-97-11c50-1 110 9 110-42 0-47-63-36-110-37v79zm0 115c55-2 124 14 124-45 0-56-70-42-124-44v89" id="ak"/>
            <path d="M143 0L79-87 56-68V0H24v-261h32v163l83-92h37l-77 82L181 0h-38" id="al"/>
            <path d="M68-36c1 33-1 63-14 82H32c9-13 17-26 17-46H33v-36h35zM33-154v-36h35v36H33" id="am"/>
            <g id="k">
                <use transform="matrix(0.05,0,0,0.05,0,0)" xlink:href="#ak"/>
                <use transform="matrix(0.05,0,0,0.05,12,0)" xlink:href="#W"/>
                <use transform="matrix(0.05,0,0,0.05,17.95,0)" xlink:href="#S"/>
                <use transform="matrix(0.05,0,0,0.05,27.950000000000003,0)" xlink:href="#aa"/>
                <use transform="matrix(0.05,0,0,0.05,37.95,0)" xlink:href="#al"/>
                <use transform="matrix(0.05,0,0,0.05,46.95,0)" xlink:href="#am"/>
            </g>
            <path d="M84 4C-5 8 30-112 23-190h32v120c0 31 7 50 39 49 72-2 45-101 50-169h31l1 190h-30c-1-10 1-25-2-33-11 22-28 36-60 37" id="an"/>
            <g id="l">
                <use transform="matrix(0.05,0,0,0.05,0,0)" xlink:href="#af"/>
                <use transform="matrix(0.05,0,0,0.05,12.950000000000001,0)" xlink:href="#Q"/>
                <use transform="matrix(0.05,0,0,0.05,22.950000000000003,0)" xlink:href="#Y"/>
                <use transform="matrix(0.05,0,0,0.05,32.95,0)" xlink:href="#O"/>
                <use transform="matrix(0.05,0,0,0.05,37.95,0)" xlink:href="#X"/>
                <use transform="matrix(0.05,0,0,0.05,41.900000000000006,0)" xlink:href="#Y"/>
                <use transform="matrix(0.05,0,0,0.05,51.900000000000006,0)" xlink:href="#an"/>
                <use transform="matrix(0.05,0,0,0.05,61.900000000000006,0)" xlink:href="#S"/>
                <use transform="matrix(0.05,0,0,0.05,71.9,0)" xlink:href="#am"/>
            </g>
            <path d="M266 0h-40l-56-210L115 0H75L2-248h35L96-30l15-64 43-154h32l59 218 59-218h35" id="ao"/>
            <path d="M106-169C34-169 62-67 57 0H25v-261h32l-1 103c12-21 28-36 61-36 89 0 53 116 60 194h-32v-121c2-32-8-49-39-48" id="ap"/>
            <g id="m">
                <use transform="matrix(0.05,0,0,0.05,0,0)" xlink:href="#ai"/>
                <use transform="matrix(0.05,0,0,0.05,12.950000000000001,0)" xlink:href="#Q"/>
                <use transform="matrix(0.05,0,0,0.05,22.950000000000003,0)" xlink:href="#ao"/>
                <use transform="matrix(0.05,0,0,0.05,39.900000000000006,0)" xlink:href="#ap"/>
                <use transform="matrix(0.05,0,0,0.05,49.900000000000006,0)" xlink:href="#X"/>
                <use transform="matrix(0.05,0,0,0.05,53.85,0)" xlink:href="#ab"/>
                <use transform="matrix(0.05,0,0,0.05,57.80000000000001,0)" xlink:href="#S"/>
                <use transform="matrix(0.05,0,0,0.05,67.80000000000001,0)" xlink:href="#am"/>
            </g>
            <path d="M33 0v-248h34V0H33" id="aq"/>
            <path d="M101-234c-31-9-42 10-38 44h38v23H63V0H32v-167H5v-23h27c-7-52 17-82 69-68v24" id="ar"/>
            <g id="n">
                <use transform="matrix(0.05,0,0,0.05,0,0)" xlink:href="#aq"/>
                <use transform="matrix(0.05,0,0,0.05,5,0)" xlink:href="#ar"/>
                <use transform="matrix(0.05,0,0,0.05,10,0)" xlink:href="#T"/>
                <use transform="matrix(0.05,0,0,0.05,22,0)" xlink:href="#ab"/>
                <use transform="matrix(0.05,0,0,0.05,25.950000000000003,0)" xlink:href="#N"/>
                <use transform="matrix(0.05,0,0,0.05,34.95,0)" xlink:href="#S"/>
                <use transform="matrix(0.05,0,0,0.05,44.95,0)" xlink:href="#am"/>
            </g>
            <path d="M233-177c-1 41-23 64-60 70L243 0h-38l-65-103H63V0H30v-248c88 3 205-21 203 71zM63-129c60-2 137 13 137-47 0-61-80-42-137-45v92" id="as"/>
            <g id="o">
                <use transform="matrix(0.05,0,0,0.05,0,0)" xlink:href="#as"/>
                <use transform="matrix(0.05,0,0,0.05,12.950000000000001,0)" xlink:href="#S"/>
                <use transform="matrix(0.05,0,0,0.05,22.950000000000003,0)" xlink:href="#O"/>
                <use transform="matrix(0.05,0,0,0.05,27.950000000000003,0)" xlink:href="#an"/>
                <use transform="matrix(0.05,0,0,0.05,37.95,0)" xlink:href="#W"/>
                <use transform="matrix(0.05,0,0,0.05,43.900000000000006,0)" xlink:href="#Y"/>
                <use transform="matrix(0.05,0,0,0.05,53.900000000000006,0)" xlink:href="#am"/>
            </g>
            <path d="M33 0v-38h34V0H33" id="at"/>
            <g id="p">
                <use transform="matrix(0.05,0,0,0.05,0,0)" xlink:href="#at"/>
                <use transform="matrix(0.05,0,0,0.05,5,0)" xlink:href="#at"/>
                <use transform="matrix(0.05,0,0,0.05,10,0)" xlink:href="#at"/>
            </g>
            <path d="M177-190C167-65 218 103 67 71c-23-6-38-20-44-43l32-5c15 47 100 32 89-28v-30C133-14 115 1 83 1 29 1 15-40 15-95c0-56 16-97 71-98 29-1 48 16 59 35 1-10 0-23 2-32h30zM94-22c36 0 50-32 50-73 0-42-14-75-50-75-39 0-46 34-46 75s6 73 46 73" id="au"/>
            <g id="q">
                <use transform="matrix(0.05,0,0,0.05,0,0)" xlink:href="#M"/>
                <use transform="matrix(0.05,0,0,0.05,12,0)" xlink:href="#N"/>
                <use transform="matrix(0.05,0,0,0.05,21,0)" xlink:href="#N"/>
                <use transform="matrix(0.05,0,0,0.05,30,0)" xlink:href="#X"/>
                <use transform="matrix(0.05,0,0,0.05,33.95,0)" xlink:href="#au"/>
                <use transform="matrix(0.05,0,0,0.05,43.95,0)" xlink:href="#Y"/>
                <use transform="matrix(0.05,0,0,0.05,53.95,0)" xlink:href="#ad"/>
                <use transform="matrix(0.05,0,0,0.05,68.9,0)" xlink:href="#S"/>
                <use transform="matrix(0.05,0,0,0.05,78.9,0)" xlink:href="#Y"/>
                <use transform="matrix(0.05,0,0,0.05,88.9,0)" xlink:href="#O"/>
                <use transform="matrix(0.05,0,0,0.05,93.9,0)" xlink:href="#am"/>
            </g>
            <path d="M140-251c81 0 123 46 123 126C263-46 219 4 140 4 59 4 17-45 17-125s42-126 123-126zm0 227c63 0 89-41 89-101s-29-99-89-99c-61 0-89 39-89 99S79-25 140-24" id="av"/>
            <g id="r">
                <use transform="matrix(0.05,0,0,0.05,0,0)" xlink:href="#ak"/>
                <use transform="matrix(0.05,0,0,0.05,12,0)" xlink:href="#X"/>
                <use transform="matrix(0.05,0,0,0.05,15.949999999999998,0)" xlink:href="#Y"/>
                <use transform="matrix(0.05,0,0,0.05,25.950000000000003,0)" xlink:href="#aa"/>
                <use transform="matrix(0.05,0,0,0.05,35.95,0)" xlink:href="#W"/>
                <use transform="matrix(0.05,0,0,0.05,41.900000000000006,0)" xlink:href="#ah"/>
                <use transform="matrix(0.05,0,0,0.05,50.900000000000006,0)" xlink:href="#av"/>
                <use transform="matrix(0.05,0,0,0.05,64.9,0)" xlink:href="#V"/>
                <use transform="matrix(0.05,0,0,0.05,74.9,0)" xlink:href="#S"/>
                <use transform="matrix(0.05,0,0,0.05,84.9,0)" xlink:href="#W"/>
                <use transform="matrix(0.05,0,0,0.05,90.85000000000001,0)" xlink:href="#aa"/>
                <use transform="matrix(0.05,0,0,0.05,100.85000000000001,0)" xlink:href="#O"/>
                <use transform="matrix(0.05,0,0,0.05,105.85000000000001,0)" xlink:href="#Q"/>
                <use transform="matrix(0.05,0,0,0.05,115.85000000000001,0)" xlink:href="#W"/>
                <use transform="matrix(0.05,0,0,0.05,121.80000000000001,0)" xlink:href="#am"/>
            </g>
            <g id="s">
                <use transform="matrix(0.05,0,0,0.05,0,0)" xlink:href="#aq"/>
                <use transform="matrix(0.05,0,0,0.05,5,0)" xlink:href="#Y"/>
                <use transform="matrix(0.05,0,0,0.05,15,0)" xlink:href="#R"/>
                <use transform="matrix(0.05,0,0,0.05,25,0)" xlink:href="#S"/>
                <use transform="matrix(0.05,0,0,0.05,35,0)" xlink:href="#U"/>
                <use transform="matrix(0.05,0,0,0.05,44,0)" xlink:href="#S"/>
                <use transform="matrix(0.05,0,0,0.05,54,0)" xlink:href="#W"/>
                <use transform="matrix(0.05,0,0,0.05,59.95,0)" xlink:href="#am"/>
            </g>
            <g id="t">
                <use transform="matrix(0.05,0,0,0.05,0,0)" xlink:href="#af"/>
                <use transform="matrix(0.05,0,0,0.05,12.950000000000001,0)" xlink:href="#Q"/>
                <use transform="matrix(0.05,0,0,0.05,22.950000000000003,0)" xlink:href="#Y"/>
                <use transform="matrix(0.05,0,0,0.05,32.95,0)" xlink:href="#R"/>
                <use transform="matrix(0.05,0,0,0.05,42.95,0)" xlink:href="#X"/>
                <use transform="matrix(0.05,0,0,0.05,46.900000000000006,0)" xlink:href="#O"/>
                <use transform="matrix(0.05,0,0,0.05,51.900000000000006,0)" xlink:href="#X"/>
                <use transform="matrix(0.05,0,0,0.05,55.85,0)" xlink:href="#Q"/>
                <use transform="matrix(0.05,0,0,0.05,65.85000000000001,0)" xlink:href="#Y"/>
                <use transform="matrix(0.05,0,0,0.05,75.85000000000001,0)" xlink:href="#aa"/>
                <use transform="matrix(0.05,0,0,0.05,85.85000000000001,0)" xlink:href="#ab"/>
                <use transform="matrix(0.05,0,0,0.05,89.80000000000001,0)" xlink:href="#am"/>
            </g>
            <path d="M232-93c-1 65-40 97-104 97C67 4 28-28 28-90v-158h33c8 89-33 224 67 224 102 0 64-133 71-224h33v155" id="aw"/>
            <g id="u">
                <use transform="matrix(0.05,0,0,0.05,0,0)" xlink:href="#aw"/>
                <use transform="matrix(0.05,0,0,0.05,12.950000000000001,0)" xlink:href="#Y"/>
                <use transform="matrix(0.05,0,0,0.05,22.950000000000003,0)" xlink:href="#aa"/>
                <use transform="matrix(0.05,0,0,0.05,32.95,0)" xlink:href="#W"/>
                <use transform="matrix(0.05,0,0,0.05,38.900000000000006,0)" xlink:href="#ah"/>
                <use transform="matrix(0.05,0,0,0.05,47.900000000000006,0)" xlink:href="#av"/>
                <use transform="matrix(0.05,0,0,0.05,61.900000000000006,0)" xlink:href="#V"/>
                <use transform="matrix(0.05,0,0,0.05,71.9,0)" xlink:href="#S"/>
                <use transform="matrix(0.05,0,0,0.05,81.9,0)" xlink:href="#W"/>
                <use transform="matrix(0.05,0,0,0.05,87.85000000000001,0)" xlink:href="#aa"/>
                <use transform="matrix(0.05,0,0,0.05,97.85000000000001,0)" xlink:href="#O"/>
                <use transform="matrix(0.05,0,0,0.05,102.85000000000001,0)" xlink:href="#Q"/>
                <use transform="matrix(0.05,0,0,0.05,112.85000000000001,0)" xlink:href="#W"/>
                <use transform="matrix(0.05,0,0,0.05,118.80000000000001,0)" xlink:href="#am"/>
            </g>
            <g id="v">
                <use transform="matrix(0.05,0,0,0.05,0,0)" xlink:href="#at"/>
                <use transform="matrix(0.05,0,0,0.05,5,0)" xlink:href="#at"/>
                <use transform="matrix(0.05,0,0,0.05,10,0)" xlink:href="#at"/>
            </g>
            <path d="M127-220V0H93v-220H8v-28h204v28h-85" id="ax"/>
            <g id="w">
                <use transform="matrix(0.05,0,0,0.05,0,0)" xlink:href="#ax"/>
                <use transform="matrix(0.05,0,0,0.05,9.950000000000001,0)" xlink:href="#ah"/>
                <use transform="matrix(0.05,0,0,0.05,18.950000000000003,0)" xlink:href="#V"/>
                <use transform="matrix(0.05,0,0,0.05,28.950000000000003,0)" xlink:href="#S"/>
                <use transform="matrix(0.05,0,0,0.05,38.95,0)" xlink:href="#am"/>
            </g>
            <g id="x">
                <use transform="matrix(0.05,0,0,0.05,0,0)" xlink:href="#ak"/>
                <use transform="matrix(0.05,0,0,0.05,12,0)" xlink:href="#Q"/>
                <use transform="matrix(0.05,0,0,0.05,22,0)" xlink:href="#Q"/>
                <use transform="matrix(0.05,0,0,0.05,32,0)" xlink:href="#ab"/>
                <use transform="matrix(0.05,0,0,0.05,35.95,0)" xlink:href="#S"/>
                <use transform="matrix(0.05,0,0,0.05,45.95,0)" xlink:href="#aa"/>
                <use transform="matrix(0.05,0,0,0.05,55.95,0)" xlink:href="#Y"/>
                <use transform="matrix(0.05,0,0,0.05,65.95,0)" xlink:href="#am"/>
            </g>
            <g id="y">
                <use transform="matrix(0.05,0,0,0.05,0,0)" xlink:href="#af"/>
                <use transform="matrix(0.05,0,0,0.05,12.950000000000001,0)" xlink:href="#Q"/>
                <use transform="matrix(0.05,0,0,0.05,22.950000000000003,0)" xlink:href="#ad"/>
                <use transform="matrix(0.05,0,0,0.05,37.900000000000006,0)" xlink:href="#ad"/>
                <use transform="matrix(0.05,0,0,0.05,52.85,0)" xlink:href="#S"/>
                <use transform="matrix(0.05,0,0,0.05,62.85,0)" xlink:href="#Y"/>
                <use transform="matrix(0.05,0,0,0.05,72.85000000000001,0)" xlink:href="#O"/>
                <use transform="matrix(0.05,0,0,0.05,77.85000000000001,0)" xlink:href="#am"/>
            </g>
            <g id="z">
                <use transform="matrix(0.05,0,0,0.05,0,0)" xlink:href="#ae"/>
                <use transform="matrix(0.05,0,0,0.05,10.950000000000001,0)" xlink:href="#ab"/>
                <use transform="matrix(0.05,0,0,0.05,14.9,0)" xlink:href="#Q"/>
                <use transform="matrix(0.05,0,0,0.05,24.900000000000002,0)" xlink:href="#aa"/>
                <use transform="matrix(0.05,0,0,0.05,34.900000000000006,0)" xlink:href="#O"/>
                <use transform="matrix(0.05,0,0,0.05,39.900000000000006,0)" xlink:href="#am"/>
            </g>
            <g id="A">
                <use transform="matrix(0.05,0,0,0.05,0,0)" xlink:href="#aq"/>
                <use transform="matrix(0.05,0,0,0.05,5,0)" xlink:href="#R"/>
                <use transform="matrix(0.05,0,0,0.05,15,0)" xlink:href="#am"/>
            </g>
            <g id="B">
                <use transform="matrix(0.05,0,0,0.05,0,0)" xlink:href="#aq"/>
                <use transform="matrix(0.05,0,0,0.05,5,0)" xlink:href="#Y"/>
                <use transform="matrix(0.05,0,0,0.05,15,0)" xlink:href="#O"/>
                <use transform="matrix(0.05,0,0,0.05,20,0)" xlink:href="#am"/>
            </g>
            <g id="C">
                <use transform="matrix(0.05,0,0,0.05,0,0)" xlink:href="#ac"/>
                <use transform="matrix(0.05,0,0,0.05,12,0)" xlink:href="#O"/>
                <use transform="matrix(0.05,0,0,0.05,17,0)" xlink:href="#W"/>
                <use transform="matrix(0.05,0,0,0.05,22.95,0)" xlink:href="#X"/>
                <use transform="matrix(0.05,0,0,0.05,26.899999999999995,0)" xlink:href="#Y"/>
                <use transform="matrix(0.05,0,0,0.05,36.9,0)" xlink:href="#au"/>
                <use transform="matrix(0.05,0,0,0.05,46.9,0)" xlink:href="#am"/>
            </g>
            <g id="D">
                <use transform="matrix(0.05,0,0,0.05,0,0)" xlink:href="#ae"/>
                <use transform="matrix(0.05,0,0,0.05,10.950000000000001,0)" xlink:href="#X"/>
                <use transform="matrix(0.05,0,0,0.05,14.9,0)" xlink:href="#S"/>
                <use transform="matrix(0.05,0,0,0.05,24.900000000000002,0)" xlink:href="#ab"/>
                <use transform="matrix(0.05,0,0,0.05,28.85,0)" xlink:href="#R"/>
                <use transform="matrix(0.05,0,0,0.05,38.85,0)" xlink:href="#am"/>
            </g>
            <path d="M240 0l2-218c-23 76-54 145-80 218h-23L58-218 59 0H30v-248h44l77 211c21-75 51-140 76-211h43V0h-30" id="ay"/>
            <g id="E">
                <use transform="matrix(0.05,0,0,0.05,0,0)" xlink:href="#ay"/>
                <use transform="matrix(0.05,0,0,0.05,14.950000000000001,0)" xlink:href="#S"/>
                <use transform="matrix(0.05,0,0,0.05,24.950000000000003,0)" xlink:href="#O"/>
                <use transform="matrix(0.05,0,0,0.05,29.950000000000003,0)" xlink:href="#ap"/>
                <use transform="matrix(0.05,0,0,0.05,39.95,0)" xlink:href="#Q"/>
                <use transform="matrix(0.05,0,0,0.05,49.95,0)" xlink:href="#R"/>
                <use transform="matrix(0.05,0,0,0.05,59.95,0)" xlink:href="#am"/>
            </g>
            <g id="F">
                <use transform="matrix(0.05,0,0,0.05,0,0)" xlink:href="#af"/>
                <use transform="matrix(0.05,0,0,0.05,12.950000000000001,0)" xlink:href="#Q"/>
                <use transform="matrix(0.05,0,0,0.05,22.950000000000003,0)" xlink:href="#Y"/>
                <use transform="matrix(0.05,0,0,0.05,32.95,0)" xlink:href="#O"/>
                <use transform="matrix(0.05,0,0,0.05,37.95,0)" xlink:href="#W"/>
                <use transform="matrix(0.05,0,0,0.05,43.900000000000006,0)" xlink:href="#an"/>
                <use transform="matrix(0.05,0,0,0.05,53.900000000000006,0)" xlink:href="#ag"/>
                <use transform="matrix(0.05,0,0,0.05,62.900000000000006,0)" xlink:href="#O"/>
                <use transform="matrix(0.05,0,0,0.05,67.9,0)" xlink:href="#Q"/>
                <use transform="matrix(0.05,0,0,0.05,77.9,0)" xlink:href="#W"/>
                <use transform="matrix(0.05,0,0,0.05,83.85000000000001,0)" xlink:href="#am"/>
            </g>
            <g id="G">
                <use transform="matrix(0.05,0,0,0.05,0,0)" xlink:href="#M"/>
                <use transform="matrix(0.05,0,0,0.05,12,0)" xlink:href="#W"/>
                <use transform="matrix(0.05,0,0,0.05,17.95,0)" xlink:href="#au"/>
                <use transform="matrix(0.05,0,0,0.05,27.950000000000003,0)" xlink:href="#N"/>
                <use transform="matrix(0.05,0,0,0.05,36.95,0)" xlink:href="#am"/>
            </g>
            <g id="H">
                <use transform="matrix(0.05,0,0,0.05,0,0)" xlink:href="#T"/>
                <use transform="matrix(0.05,0,0,0.05,12,0)" xlink:href="#Y"/>
                <use transform="matrix(0.05,0,0,0.05,22,0)" xlink:href="#O"/>
                <use transform="matrix(0.05,0,0,0.05,27,0)" xlink:href="#X"/>
                <use transform="matrix(0.05,0,0,0.05,30.950000000000003,0)" xlink:href="#O"/>
                <use transform="matrix(0.05,0,0,0.05,35.95,0)" xlink:href="#X"/>
                <use transform="matrix(0.05,0,0,0.05,39.900000000000006,0)" xlink:href="#S"/>
                <use transform="matrix(0.05,0,0,0.05,49.900000000000006,0)" xlink:href="#N"/>
                <use transform="matrix(0.05,0,0,0.05,58.900000000000006,0)" xlink:href="#am"/>
            </g>
            <g id="I">
                <use transform="matrix(0.05,0,0,0.05,0,0)" xlink:href="#ac"/>
                <use transform="matrix(0.05,0,0,0.05,12,0)" xlink:href="#O"/>
                <use transform="matrix(0.05,0,0,0.05,17,0)" xlink:href="#aa"/>
                <use transform="matrix(0.05,0,0,0.05,27,0)" xlink:href="#O"/>
                <use transform="matrix(0.05,0,0,0.05,32,0)" xlink:href="#S"/>
                <use transform="matrix(0.05,0,0,0.05,42,0)" xlink:href="#ad"/>
                <use transform="matrix(0.05,0,0,0.05,56.95,0)" xlink:href="#S"/>
                <use transform="matrix(0.05,0,0,0.05,66.95,0)" xlink:href="#Y"/>
                <use transform="matrix(0.05,0,0,0.05,76.95,0)" xlink:href="#O"/>
                <use transform="matrix(0.05,0,0,0.05,81.95,0)" xlink:href="#N"/>
                <use transform="matrix(0.05,0,0,0.05,90.95,0)" xlink:href="#am"/>
            </g>
            <g id="J">
                <use transform="matrix(0.05,0,0,0.05,0,0)" xlink:href="#T"/>
                <use transform="matrix(0.05,0,0,0.05,12,0)" xlink:href="#U"/>
                <use transform="matrix(0.05,0,0,0.05,21,0)" xlink:href="#V"/>
                <use transform="matrix(0.05,0,0,0.05,31,0)" xlink:href="#W"/>
                <use transform="matrix(0.05,0,0,0.05,36.95,0)" xlink:href="#S"/>
                <use transform="matrix(0.05,0,0,0.05,46.95,0)" xlink:href="#N"/>
                <use transform="matrix(0.05,0,0,0.05,55.95,0)" xlink:href="#N"/>
                <use transform="matrix(0.05,0,0,0.05,64.95,0)" xlink:href="#X"/>
                <use transform="matrix(0.05,0,0,0.05,68.9,0)" xlink:href="#Q"/>
                <use transform="matrix(0.05,0,0,0.05,78.9,0)" xlink:href="#Y"/>
                <use transform="matrix(0.05,0,0,0.05,88.9,0)" xlink:href="#N"/>
                <use transform="matrix(0.05,0,0,0.05,97.9,0)" xlink:href="#am"/>
            </g>
            <g id="K">
                <use transform="matrix(0.05,0,0,0.05,0,0)" xlink:href="#as"/>
                <use transform="matrix(0.05,0,0,0.05,12.950000000000001,0)" xlink:href="#aa"/>
                <use transform="matrix(0.05,0,0,0.05,22.950000000000003,0)" xlink:href="#Y"/>
                <use transform="matrix(0.05,0,0,0.05,32.95,0)" xlink:href="#au"/>
                <use transform="matrix(0.05,0,0,0.05,42.95,0)" xlink:href="#S"/>
                <use transform="matrix(0.05,0,0,0.05,52.95,0)" xlink:href="#am"/>
            </g>
            <g id="L">
                <use transform="matrix(0.05,0,0,0.05,0,0)" xlink:href="#as"/>
                <use transform="matrix(0.05,0,0,0.05,12.950000000000001,0)" xlink:href="#S"/>
                <use transform="matrix(0.05,0,0,0.05,22.950000000000003,0)" xlink:href="#au"/>
                <use transform="matrix(0.05,0,0,0.05,32.95,0)" xlink:href="#S"/>
                <use transform="matrix(0.05,0,0,0.05,42.95,0)" xlink:href="#U"/>
                <use transform="matrix(0.05,0,0,0.05,51.95,0)" xlink:href="#am"/>
            </g>
        </defs>
    </g>
</svg>