<svg xmlns="http://www.w3.org/2000/svg" xmlns:xlink="http://www.w3.org/1999/xlink" xmlns:lucid="lucid" width="820" height="445">
    <g transform="translate(-103 -629)" lucid:page-tab-id="0_0">
        <path d="M476.73 656c0-2.76 2.24-5 5-5h128.35c2.76 0 5 2.24 5 5v20.13c0 2.76-2.24 5-5 5H481.73c-2.76 0-5-2.24-5-5z" stroke="#000" fill="#ffdf71"/>
        <use xlink:href="#a" transform="matrix(1,0,0,1,496.7281231059462,651) translate(29.796296296296294 19.055555555555557)"/>
        <path d="M504.7 681.63L386.32 755.7" stroke="#19967d" fill="none"/>
        <path d="M504.96 682.05l-.53-.84.12-.07h1.9zM388.17 760l-14.56 3.64 9.65-11.5z" fill="#19967d"/>
        <path d="M388.96 760.32l-16.72 4.18 11.07-13.2zM375 762.78l12.38-3.1-4.2-6.7z" fill="#19967d"/>
        <path d="M333.33 770c0-2.76 2.24-5 5-5H448c2.76 0 5 2.24 5 5v21.12c0 2.76-2.24 5-5 5H338.33c-2.76 0-5-2.24-5-5z" stroke="#000" fill="#ffdf71"/>
        <use xlink:href="#a" transform="matrix(1,0,0,1,353.33333333333326,764.9999999999999) translate(20.296296296296294 19.555555555555557)"/>
        <path d="M168 860.9c0-2.77 2.24-5 5-5h104.07c2.76 0 5 2.23 5 5V882c0 2.77-2.24 5-5 5H173c-2.76 0-5-2.23-5-5z" stroke="#000" fill="#99d2f2"/>
        <use xlink:href="#b" transform="matrix(1,0,0,1,187.99999999999977,855.8936133892831) translate(13.37654320987654 19.555555555555557)"/>
        <path d="M252 950.28c0-2.76 2.24-5 5-5h94.2c2.75 0 5 2.24 5 5v21.32c0 2.76-2.25 5-5 5H257c-2.76 0-5-2.24-5-5z" stroke="#000" fill="#99d2f2"/>
        <use xlink:href="#b" transform="matrix(1,0,0,1,272,945.2801400279943) translate(8.37654320987654 19.555555555555557)"/>
        <path d="M373.33 875c0-2.76 2.24-5 5-5H488c2.76 0 5 2.24 5 5v21.12c0 2.76-2.24 5-5 5H378.33c-2.76 0-5-2.24-5-5z" stroke="#000" fill="#ffdf71"/>
        <use xlink:href="#c" transform="matrix(1,0,0,1,393.33333333333326,869.9999999999999) translate(21.753086419753085 19.555555555555557)"/>
        <path d="M412.8 796.62l15.9 56.88" fill="none"/>
        <path d="M412.8 796.62l1.32 4.74m1.32 4.74l2.65 9.48m1.32 4.74l2.65 9.48m1.32 4.74l2.64 9.48m1.33 4.74l1.32 4.74" stroke="#c92d39" fill="none"/>
        <path d="M413.28 796.48l-.97.27-.16-.63h1.03zM432.73 867.94l-8.3-12.5 8.92-2.5z" fill="#c92d39"/>
        <path d="M433.17 869.5l-9.54-14.35 10.25-2.86zm-7.95-13.75l7.08 10.63.53-12.76z" fill="#c92d39"/>
        <path d="M399.7 755.64l117.34-74" fill="none"/>
        <path d="M399.7 755.64l4.34-2.75m4.35-2.75l8.68-5.48m4.35-2.74l8.7-5.48m4.34-2.74l8.7-5.47m4.34-2.75l8.7-5.48m4.34-2.74l8.7-5.48m4.34-2.74l8.7-5.48m4.34-2.74l8.7-5.5m4.34-2.73l8.7-5.5m4.34-2.73l4.34-2.74" stroke="#c92d39" fill="none"/>
        <path d="M401.55 759.95l-14.54 3.7 9.6-11.54z" fill="#c92d39"/>
        <path d="M402.34 760.26l-16.7 4.24 11.02-13.24zm-13.96 2.5l12.38-3.13-4.2-6.68zM517.3 682.05l-.52-.84.12-.07h1.87z" fill="#c92d39"/>
        <path d="M555 801c0-2.76 2.24-5 5-5h110c2.76 0 5 2.24 5 5v20.13c0 2.76-2.24 5-5 5H560c-2.76 0-5-2.24-5-5z" stroke="#000" fill="#ffdf71"/>
        <use xlink:href="#c" transform="matrix(1,0,0,1,575,796) translate(21.753086419753085 19.055555555555557)"/>
        <path d="M554.56 681.63l44.7 98.73" stroke="#19967d" fill="none"/>
        <path d="M555 681.42l-.9.42-.32-.7h1.1zM605.45 794.03l-10.1-11.1 8.44-3.8z" fill="#19967d"/>
        <path d="M606.12 795.5l-11.6-12.73 9.7-4.4zm-9.94-12.4l8.6 9.45-1.4-12.7z" fill="#19967d"/>
        <path d="M535.67 918.67c0-2.76 2.24-5 5-5H660c2.76 0 5 2.24 5 5v20.13c0 2.76-2.24 5-5 5H540.67c-2.76 0-5-2.24-5-5z" stroke="#000" fill="#ffdf71"/>
        <use xlink:href="#d" transform="matrix(1,0,0,1,555.6666666666662,913.6666666666665) translate(18.358024691358022 19.055555555555557)"/>
        <path d="M715.33 908.5c0-2.76 2.24-5 5-5H830c2.76 0 5 2.24 5 5v22.9c0 2.77-2.24 5-5 5H720.33c-2.76 0-5-2.23-5-5z" stroke="#000" fill="#ffdf71"/>
        <use xlink:href="#e" transform="matrix(1,0,0,1,735.3333333333328,903.4999999999998) translate(19.753086419753085 20.055555555555557)"/>
        <path d="M506 1025c0-2.76 2.24-5 5-5h20c2.76 0 5 2.24 5 5v24.67c0 2.76-2.24 5-5 5h-20c-2.76 0-5-2.24-5-5z" fill="none"/>
        <use xlink:href="#f" transform="matrix(1,0,0,1,506,1019.9999999999999) translate(10.061728395061728 21.055555555555557)"/>
        <path d="M586.17 1052.93c0-2.77 2.24-5 5-5h20c2.76 0 5 2.23 5 5v24.66c0 2.75-2.24 5-5 5h-20c-2.76 0-5-2.25-5-5z" fill="none"/>
        <use xlink:href="#g" transform="matrix(1,0,0,1,586.1666666666665,1047.9255310229837) translate(9.814814814814813 21.055555555555557)"/>
        <path d="M666.33 1024.67c0-2.76 2.24-5 5-5h35c2.76 0 5 2.24 5 5V1056c0 2.76-2.24 5-5 5h-35c-2.76 0-5-2.24-5-5z" fill="none"/>
        <use xlink:href="#h" transform="matrix(1,0,0,1,666.333333333333,1019.6666666666665) translate(17.561728395061728 24.555555555555557)"/>
        <path d="M592.67 826.63L570.9 897.3" stroke="#19967d" fill="none"/>
        <path d="M593.15 826.78l-.96-.3.1-.35h1.05zM575.1 899.35l-8.62 12.27-.23-15z" fill="#19967d"/>
        <path d="M575.92 899.08l-9.92 14.1-.26-17.24zm-8.96 11l7.35-10.45-7.54-2.33z" fill="#19967d"/>
        <path d="M641.27 826.63l92.34 66.64" stroke="#19967d" fill="none"/>
        <path d="M641.56 826.22l-.58.82-1.26-.9h1.7zM745.77 902.05l-14.28-4.6 5.4-7.5z" fill="#19967d"/>
        <path d="M747.08 903l-16.4-5.27 6.23-8.64zm-14.78-5.8l12.16 3.9-7.54-10.3z" fill="#19967d"/>
        <path d="M725.67 1021c0-2.76 2.24-5 5-5h66.66c2.76 0 5 2.24 5 5v28.67c0 2.76-2.24 5-5 5h-66.66c-2.76 0-5-2.24-5-5z" fill="none"/>
        <use xlink:href="#i" transform="matrix(1,0,0,1,725.6666666666661,1015.9999999999999) translate(19.24074074074074 23.055555555555557)"/>
        <path d="M846.67 1001.33c0-2.76 2.24-5 5-5h66.66c2.76 0 5 2.24 5 5V1030c0 2.76-2.24 5-5 5h-66.66c-2.76 0-5-2.24-5-5z" fill="none"/>
        <use xlink:href="#j" transform="matrix(1,0,0,1,846.6666666666656,996.3333333333334) translate(12.05555555555555 23.055555555555557)"/>
        <path d="M740.73 936.9l12.06 62.78" stroke="#19967d" fill="none"/>
        <path d="M741.22 936.8l-.98.2-.1-.6h1zM755.62 1014.4l-7.24-13.12 9.1-1.75z" fill="#19967d"/>
        <path d="M755.93 1016l-8.32-15.1 10.47-2zm-6.78-14.36l6.17 11.18 1.58-12.67z" fill="#19967d"/>
        <path d="M794.62 936.9l55.67 48.52" stroke="#19967d" fill="none"/>
        <path d="M794.95 936.53l-.66.75-1.02-.88h1.53zM861.6 995.27l-13.8-5.88 6.1-7z" fill="#19967d"/>
        <path d="M862.8 996.33l-15.83-6.75 7-8.02zm-14.18-7.13l11.76 5-6.57-10.95z" fill="#19967d"/>
        <path d="M696 760.56c0-2.76 2.24-5 5-5h94.2c2.75 0 5 2.24 5 5v22.9c0 2.77-2.25 5-5 5H701c-2.76 0-5-2.23-5-5z" stroke="#000" fill="#99d2f2"/>
        <use xlink:href="#k" transform="matrix(1,0,0,1,715.9999999999998,755.5602800559499) translate(14.253086419753085 20.055555555555557)"/>
        <path d="M519.33 690.62L404.5 764.5" fill="none"/>
        <path d="M519.33 690.62l-4.25 2.74m-4.25 2.73l-8.5 5.47m-4.26 2.73l-8.5 5.47m-4.26 2.74l-8.5 5.48m-4.25 2.74l-8.5 5.47m-4.26 2.73l-8.52 5.47m-4.26 2.74l-8.5 5.47m-4.26 2.75l-8.5 5.47m-4.26 2.73l-8.5 5.48m-4.26 2.73l-4.25 2.74" stroke="#c92d39" fill="none"/>
        <path d="M522.46 694.12l-5.02-7.8 14.5-3.8z" fill="#c92d39"/>
        <path d="M522.4 694.97l-5.75-8.95 16.66-4.4zm-4.16-8.34l4.27 6.64 8.1-9.9zM404.76 764.92l-.12.08h-1.85l1.42-.92z" fill="#c92d39"/>
        <path d="M417.1 853.4l-14.73-56.78" stroke="#19967d" fill="none"/>
        <path d="M420.86 867.93l-8.07-12.64 8.97-2.34z" fill="#19967d"/>
        <path d="M421.27 869.5L412 854.98l10.3-2.68zm-7.7-13.9l6.88 10.77.78-12.75zM402.85 796.5l-.97.24-.16-.62h1.04z" fill="#19967d"/>
        <path d="M403.78 979.2l4.94-77.58" fill="none"/>
        <path d="M403.78 979.2l.33-5.17m.34-5.17l.66-10.35m.33-5.16l.66-10.34m.32-5.18l.65-10.34m.33-5.17l.66-10.34m.33-5.17l.32-5.18" stroke="#c92d39" fill="none"/>
        <path d="M402.82 994.17l-3.7-14.53 9.24.6z" stroke="#c92d39" fill="#c92d39"/>
        <path d="M409.22 901.65l-1-.06.03-.48h1z" fill="#c92d39"/>
        <path d="M416.52 918.2l-4.57 81.93" fill="none"/>
        <path d="M416.52 918.2l-.3 5.47m-.3 5.46l-.62 10.92m-.3 5.47l-.6 10.92m-.32 5.46l-.6 10.92m-.3 5.46l-.62 10.93m-.3 5.47l-.3 5.46" stroke="#c92d39" fill="none"/>
        <path d="M421.2 917.74l-9.27-.52 5.43-14z" fill="#c92d39"/>
        <path d="M421.85 918.27l-10.63-.6 6.23-16.05zm-9.2-1.5l7.88.43-3.26-12.35z" fill="#c92d39"/>
        <path d="M457.32 968l-14.24-66.38" fill="none"/>
        <path d="M457.32 968l-.95-4.42m-.95-4.43l-1.9-8.85m-.95-4.43l-1.9-8.85m-.94-4.42l-1.9-8.85m-.95-4.43l-1.9-8.85m-.95-4.43l-.95-4.42" stroke="#c92d39" fill="none"/>
        <path d="M460.47 982.67l-7.53-12.98 9.07-1.95z" stroke="#c92d39" fill="#c92d39"/>
        <path d="M443.57 901.5l-.98.22-.14-.6h1.03z" fill="#c92d39"/>
        <path d="M458.2 917.83l14.7 65.24" fill="none"/>
        <path d="M458.2 917.83l1.22 5.44m1.22 5.43l2.46 10.87m1.22 5.44l2.46 10.88m1.22 5.44l2.46 10.87m1.22 5.43l1.23 5.44" stroke="#c92d39" fill="none"/>
        <path d="M462.55 916.1l-9.04 2.03 1.4-14.93z" fill="#c92d39"/>
        <path d="M463.33 916.43l-10.38 2.34 1.58-17.15zm-9.26 1.06l7.7-1.74-6.52-11z" fill="#c92d39"/>
        <path d="M388 1012.67c0-2.76 2.24-5 5-5h20c2.76 0 5 2.24 5 5v24.66c0 2.76-2.24 5-5 5h-20c-2.76 0-5-2.24-5-5z" fill="none"/>
        <use xlink:href="#l" transform="matrix(1,0,0,1,388,1007.6666666666664) translate(7.592592592592592 21.055555555555557)"/>
        <path d="M453.13 998.73c0-2.76 2.24-5 5-5h20.4c2.77 0 5 2.24 5 5v19.06c0 2.75-2.23 5-5 5h-20.4c-2.76 0-5-2.25-5-5z" fill="none"/>
        <use xlink:href="#l" transform="matrix(1,0,0,1,453.1336446401617,993.7323789002944) translate(8.092592592592592 18.555555555555557)"/>
        <path d="M608.43 780.24l-42.48-98.6" fill="none"/>
        <path d="M608.43 780.24l-2.03-4.7m-2.02-4.7l-4.04-9.38m-2.03-4.7l-4.03-9.4m-2.02-4.7l-4.05-9.38m-2.02-4.7l-4.05-9.4m-2.02-4.68l-4.03-9.4m-2.03-4.7l-4.04-9.38m-2.02-4.7l-2.03-4.7" stroke="#c92d39" fill="none"/>
        <path d="M614.36 794l-9.9-11.25 8.5-3.67z" fill="#c92d39"/>
        <path d="M615 795.5l-11.37-12.94 9.78-4.2zm-9.7-12.57l8.42 9.6-1.18-12.72zM566.4 681.43l-.9.4-.3-.7h1.08z" fill="#c92d39"/>
        <path d="M583.36 696.9l42.3 98.6" fill="none"/>
        <path d="M583.36 696.9l2.02 4.7m2 4.7l4.04 9.38m2 4.7l4.04 9.4m2.02 4.68l4.02 9.4m2.02 4.7l4.03 9.38m2 4.7l4.04 9.38m2 4.7l4.03 9.4m2.02 4.68l2 4.7" stroke="#c92d39" fill="none"/>
        <path d="M587.33 694.4l-8.52 3.65-1.35-14.93z" fill="#c92d39"/>
        <path d="M588.16 694.6l-9.78 4.2-1.57-17.17zm-8.9 2.72l7.24-3.1-8.4-9.62zM626.42 796h-1.1l-.12-.3.92-.4z" fill="#c92d39"/>
        <path d="M581.35 897.26l21.33-70.63" fill="none"/>
        <path d="M581.35 897.26l1.42-4.7m1.42-4.72l2.84-9.42m1.42-4.7l2.84-9.42m1.42-4.7l2.85-9.43m1.42-4.7l2.83-9.42m1.42-4.7l1.43-4.72" stroke="#c92d39" fill="none"/>
        <path d="M585.57 899.3L577 911.62l-.3-15z" fill="#c92d39"/>
        <path d="M586.38 899.02l-9.84 14.15-.36-17.23zm-8.9 11.05l7.3-10.5-7.57-2.27zM603.15 826.77l-.95-.28.1-.37h1.05z" fill="#c92d39"/>
        <path d="M610.1 842.5l-21.75 70.67" fill="none"/>
        <path d="M610.1 842.5l-1.44 4.72m-1.45 4.7l-2.9 9.43m-1.45 4.7l-2.9 9.43m-1.45 4.7l-2.9 9.44m-1.45 4.7l-2.9 9.43m-1.45 4.7l-1.45 4.72" stroke="#c92d39" fill="none"/>
        <path d="M614.75 843.17l-8.86-2.72 8.62-12.27z" fill="#c92d39"/>
        <path d="M615.26 843.86l-10.17-3.14 9.9-14.1zm-8.56-3.7l7.54 2.33-.2-12.78zM588.82 913.3l-.1.37h-1.05l.2-.65z" fill="#c92d39"/>
        <path d="M747.64 893.2l-91.3-66.57" fill="none"/>
        <path d="M747.64 893.2l-3.8-2.76m-3.8-2.78l-7.62-5.55m-3.8-2.76L721 873.8m-3.8-2.78l-7.6-5.55m-3.8-2.78l-7.62-5.55m-3.8-2.78l-7.62-5.55m-3.8-2.77l-7.6-5.55m-3.82-2.77l-7.6-5.55m-3.8-2.78l-3.8-2.77" stroke="#c92d39" fill="none"/>
        <path d="M759.76 902.05l-14.26-4.66 5.46-7.5z" fill="#c92d39"/>
        <path d="M761.06 903l-16.37-5.35 6.26-8.6zm-14.75-5.87l12.15 3.96-7.5-10.35zM656.62 826.23l-.6.8-1.23-.9h1.7z" fill="#c92d39"/>
        <path d="M685.66 835.9l89.5 67.1" fill="none"/>
        <path d="M685.66 835.9l4.27 3.18m4.26 3.2l8.5 6.4m4.27 3.2l8.53 6.38m4.26 3.2l8.52 6.4m4.27 3.18l8.52 6.4m4.26 3.2l8.53 6.38m4.26 3.2l8.52 6.4m4.26 3.18l4.27 3.2" stroke="#c92d39" fill="none"/>
        <path d="M687.86 831.74l-5.56 7.42-8.64-12.27z" fill="#c92d39"/>
        <path d="M688.67 831.5l-6.4 8.5-9.9-14.08zm-6.36 6.8l4.74-6.3-12.08-4.14zM776.67 903.5H775l-.13-.1.6-.8z" fill="#c92d39"/>
        <path d="M220 1045c0-2.76 2.24-5 5-5h20c2.76 0 5 2.24 5 5v24.67c0 2.76-2.24 5-5 5h-20c-2.76 0-5-2.24-5-5z" fill="none"/>
        <use xlink:href="#l" transform="matrix(1,0,0,1,220,1040) translate(7.592592592592592 21.055555555555557)"/>
        <path d="M120 955c0-2.76 2.24-5 5-5h20c2.76 0 5 2.24 5 5v24.67c0 2.76-2.24 5-5 5h-20c-2.76 0-5-2.24-5-5z" fill="none"/>
        <use xlink:href="#l" transform="matrix(1,0,0,1,120,950) translate(7.592592592592592 21.055555555555557)"/>
        <path d="M443.6 869.5l-16-56.88" fill="none"/>
        <path d="M443.6 869.5l-1.33-4.74m-1.33-4.74l-2.67-9.48m-1.34-4.74l-2.66-9.48m-1.34-4.74l-2.66-9.48m-1.34-4.74l-1.33-4.74" stroke="#c92d39" fill="none"/>
        <path d="M444.26 870h-1.04l-.1-.36.97-.28zM431.86 810.65l-8.92 2.5.6-14.97z" fill="#c92d39"/>
        <path d="M432.66 810.95l-10.25 2.88.7-17.2zm-9.2 1.55l7.6-2.14-7.1-10.63z" fill="#c92d39"/>
        <path d="M389.88 978.77l8.8-77.15" stroke="#19967d" fill="none"/>
        <path d="M388.18 993.68l-3-14.7 9.22 1.05z" stroke="#19967d" fill="#19967d"/>
        <path d="M399.16 901.67l-1-.1.06-.45h1z" fill="#19967d"/>
        <path d="M446.84 970.15l-13.67-68.53" stroke="#19967d" fill="none"/>
        <path d="M449.77 984.86l-7.34-13.1 9.1-1.8z" stroke="#19967d" fill="#19967d"/>
        <path d="M433.66 901.52l-.98.2-.12-.6h1.02z" fill="#19967d"/>
        <path d="M140 717.68h84.7" fill="none"/>
        <path d="M140 717.68h4.7m4.7 0h9.42m4.7 0h9.42m4.7 0h9.42m4.7 0h9.42m4.7 0h9.4m4.72 0h4.7" stroke="#c92d39" fill="none"/>
        <path d="M239.7 717.68l-14.26 4.63v-9.26z" stroke="#c92d39" fill="#c92d39"/>
        <path d="M223.38 667.78H140" stroke="#19967d" fill="none"/>
        <path d="M238.38 667.78l-14.26 4.64v-9.27z" stroke="#19967d" fill="#19967d"/>
        <path d="M257.58 705c0-2.76 2.24-5 5-5h90c2.76 0 5 2.24 5 5v32.67c0 2.76-2.24 5-5 5h-90c-2.76 0-5-2.24-5-5z" fill="none"/>
        <use xlink:href="#m" transform="matrix(1,0,0,1,257.5827440748935,700) translate(0 14.222222222222223)"/>
        <use xlink:href="#n" transform="matrix(1,0,0,1,257.5827440748935,700) translate(0 33.77777777777778)"/>
        <use xlink:href="#o" transform="matrix(1,0,0,1,257.5827440748935,700) translate(54.31481481481481 33.77777777777778)"/>
        <path d="M259.4 657c0-2.76 2.23-5 5-5h53.2c2.75 0 5 2.24 5 5v38c0 2.76-2.25 5-5 5h-53.2c-2.77 0-5-2.24-5-5z" fill="none"/>
        <use xlink:href="#p" transform="matrix(1,0,0,1,259.39478977261274,652) translate(0 14.222222222222223)"/>
        <use xlink:href="#q" transform="matrix(1,0,0,1,259.39478977261274,652) translate(0 33.77777777777778)"/>
        <path d="M344 796.62l-118.8 52.1" fill="none"/>
        <path d="M344 796.62l-4.4 1.93m-4.4 1.93l-8.8 3.86m-4.4 1.93l-8.8 3.86m-4.4 1.93l-8.8 3.85m-4.4 1.94l-8.8 3.86m-4.4 1.93l-8.8 3.86m-4.4 1.92l-8.8 3.86m-4.4 1.93l-8.8 3.87m-4.4 1.93l-8.8 3.86m-4.4 1.93l-4.4 1.92" stroke="#c92d39" fill="none"/>
        <path d="M344.2 797.08l-.4-.92.1-.04h2.5zM226.38 853.26l-14.92 1.48 11.2-9.97z" fill="#c92d39"/>
        <path d="M227.12 853.7l-17.14 1.7 12.86-11.46zm-14.18.4l12.7-1.27-3.16-7.23z" fill="#c92d39"/>
        <path d="M237.07 855.4l115.22-51.95" fill="none"/>
        <path d="M237.07 855.4l4.8-2.17m4.8-2.17l9.6-4.32m4.8-2.17l9.6-4.33m4.8-2.16l9.6-4.33m4.8-2.16l9.6-4.34m4.8-2.17l9.6-4.34m4.8-2.16l9.6-4.33m4.82-2.16l9.6-4.32m4.8-2.17l4.8-2.15" stroke="#c92d39" fill="none"/>
        <path d="M237.28 855.85l-.1.04h-2.43l2.12-.96zM354.86 807.37l-3.8-8.45 14.9-1.64z" fill="#c92d39"/>
        <path d="M354.7 808.2l-4.4-9.7 17.14-1.88zm-2.9-8.86l3.23 7.2 9.46-8.6z" fill="#c92d39"/>
        <path d="M198.26 887.5l-55.95 50.73" fill="none"/>
        <path d="M198.26 887.5l-3.73 3.4m-3.73 3.37l-7.46 6.77m-3.73 3.38l-7.45 6.76m-3.73 3.38l-7.46 6.76m-3.73 3.38l-7.46 6.76m-3.73 3.4l-3.73 3.37" stroke="#c92d39" fill="none"/>
        <path d="M198.6 887.88l-.68-.74.15-.13h1.48z" fill="#c92d39"/>
        <path d="M131.2 948.3l7.46-13 6.22 6.85z" stroke="#c92d39" fill="#c92d39"/>
        <path d="M146.46 950.48l53.7-51.47" fill="none"/>
        <path d="M146.46 950.48l3.58-3.44m3.58-3.43l7.16-6.85m3.58-3.43l7.16-6.86m3.6-3.43l7.15-6.87m3.58-3.43l7.16-6.86m3.6-3.43l3.57-3.43" stroke="#c92d39" fill="none"/>
        <path d="M146.46 950.48l-.54-.18.2-.2zM203.9 901.85l-6.4-6.7 13.5-6.52z" fill="#c92d39"/>
        <path d="M204.03 902.7l-7.37-7.7 15.5-7.5zm-5.7-7.4l5.47 5.7 6.04-11.25z" fill="#c92d39"/>
        <path d="M298.26 977.06l-55.95 50.72" fill="none"/>
        <path d="M298.26 977.06l-3.73 3.38m-3.73 3.38l-7.46 6.77m-3.73 3.37l-7.45 6.76m-3.73 3.38l-7.46 6.77m-3.73 3.38l-7.46 6.76m-3.73 3.4l-3.73 3.38" stroke="#c92d39" fill="none"/>
        <path d="M231.2 1037.85l7.46-13 6.22 6.85z" stroke="#c92d39" fill="#c92d39"/>
        <path d="M253.77 1033.55l46.46-44.94" fill="none"/>
        <path d="M253.77 1033.55l3.87-3.74m3.87-3.74l7.75-7.5m3.87-3.73l7.75-7.5m3.87-3.74l7.74-7.5m3.88-3.74l3.87-3.75" stroke="#c92d39" fill="none"/>
        <path d="M311 978.2L304 991.43l-6.45-6.67z" stroke="#c92d39" fill="#c92d39"/>
        <path d="M380.62 796.62l-68.9 133.4" fill="none"/>
        <path d="M380.62 796.62l-2.3 4.44m-2.3 4.45l-4.6 8.9m-2.28 4.45l-4.6 8.9m-2.3 4.44l-4.6 8.88m-2.28 4.45l-4.6 8.9m-2.3 4.44l-4.6 8.9m-2.28 4.44l-4.6 8.9m-2.3 4.45l-4.6 8.9m-2.28 4.44l-4.6 8.88m-2.3 4.45l-4.6 8.9m-2.28 4.44l-2.3 4.45" stroke="#c92d39" fill="none"/>
        <path d="M381.06 796.85l-.88-.46.14-.28h1.12zM315.5 932.8l-10.66 10.54 2.43-14.8z" fill="#c92d39"/>
        <path d="M316.34 932.67l-12.25 12.1 2.78-17zm-10.76 9.23l9.08-8.98-7-3.62z" fill="#c92d39"/>
        <path d="M316.9 944.78l68.66-133.4" fill="none"/>
        <path d="M316.9 944.78l2.3-4.45m2.28-4.44l4.58-8.9m2.3-4.45l4.56-8.9m2.3-4.44l4.57-8.88m2.28-4.45l4.57-8.9m2.3-4.44l4.57-8.9m2.3-4.44l4.57-8.9m2.28-4.44l4.57-8.9m2.3-4.44l4.57-8.9m2.3-4.44l4.56-8.9m2.3-4.44l2.28-4.45" stroke="#c92d39" fill="none"/>
        <path d="M317.35 945l-.14.28h-1.12l.38-.73zM390.02 812.86l-8.24-4.24 10.65-10.56z" fill="#c92d39"/>
        <path d="M390.4 813.62l-9.46-4.87 12.23-12.13zm-7.78-5.13l7.02 3.6 2.05-12.6z" fill="#c92d39"/>
        <path d="M703.62 746.1l-100.76-64.47" fill="none"/>
        <path d="M703.62 746.1l-4.2-2.68m-4.2-2.7l-8.4-5.36m-4.2-2.7l-8.38-5.36m-4.2-2.7l-8.4-5.36m-4.2-2.7l-8.4-5.36m-4.2-2.7l-8.4-5.36m-4.2-2.7l-8.4-5.36m-4.18-2.68l-8.4-5.38m-4.2-2.68l-4.2-2.7" stroke="#c92d39" fill="none"/>
        <path d="M716.26 754.2l-14.52-3.8 5-7.8z" fill="#c92d39"/>
        <path d="M717.62 755.06l-16.67-4.35 5.74-8.95zm-15.08-4.97l12.36 3.22-8.1-9.88zM603.13 681.2l-.54.85-1.45-.92H603z" fill="#c92d39"/>
        <path d="M628.98 687.02l106.84 68.04" fill="none"/>
        <path d="M628.98 687.02l4.46 2.83m4.45 2.84l8.9 5.66m4.44 2.83l8.9 5.66m4.46 2.84l8.9 5.67m4.45 2.83l8.9 5.67m4.46 2.84l8.9 5.68m4.46 2.83l8.9 5.68m4.45 2.84l8.92 5.67m4.45 2.83l4.45 2.83" stroke="#c92d39" fill="none"/>
        <path d="M630.86 682.7l-4.98 7.83-9.55-11.57z" fill="#c92d39"/>
        <path d="M631.65 682.4l-5.72 8.98-10.96-13.3zm-5.83 7.28l4.24-6.65-12.36-3.2zM737.54 755.56h-1.86l-.13-.08.54-.84z" fill="#c92d39"/>
        <path d="M529.63 1004.3l20.9-60" fill="none"/>
        <path d="M529.63 1004.3l1.74-5m1.74-5l3.5-10m1.74-5l3.48-10m1.74-5l3.5-10m1.73-5l1.73-5" stroke="#c92d39" fill="none"/>
        <path d="M533.77 1006.52l-9.07 11.95.3-15z" fill="#c92d39"/>
        <path d="M534.58 1006.28L524.16 1020l.37-17.22zm-9.35 10.66l7.72-10.17-7.45-2.6zM551 944.46l-.94-.33.1-.33h1.07z" fill="#c92d39"/>
        <path d="M556.73 959.97l-21.88 62.22" fill="none"/>
        <path d="M556.73 959.97l-1.82 5.2m-1.8 5.17l-3.66 10.37m-1.83 5.2l-3.63 10.37m-1.83 5.18l-3.64 10.37m-1.83 5.2l-1.82 5.17" stroke="#c92d39" fill="none"/>
        <path d="M561.35 960.82l-8.75-3.08 9.1-11.92z" fill="#c92d39"/>
        <path d="M561.83 961.52L551.8 958l10.45-13.7zm-8.4-4.02l7.44 2.62.3-12.77zM535.32 1022.36l-.1.32-.37-.5z" fill="#c92d39"/>
        <path d="M590.92 1031.35V944.3" fill="none"/>
        <path d="M590.92 1031.35v-4.84m0-4.83V1012m0-4.83v-9.68m0-4.84V983m0-4.85v-9.67m0-4.84v-9.67m0-4.84v-4.83" stroke="#c92d39" fill="none"/>
        <path d="M590.92 1046.35l-4.63-14.27h9.26z" fill="#c92d39"/>
        <path d="M590.92 1047.97l-5.32-16.4h10.65zm-3.95-15.4l3.95 12.16 3.95-12.15zM591.42 944.3h-1v-.5h1z" fill="#c92d39"/>
        <path d="M600.4 960.9l.3 87.03" fill="none"/>
        <path d="M600.4 960.9v4.85m.02 4.83l.04 9.67m0 4.83l.05 9.67m.02 4.84l.04 9.65m0 4.84l.05 9.66m.03 4.83l.03 9.66m.02 4.83v4.83" stroke="#c92d39" fill="none"/>
        <path d="M605.02 960.16l-9.27.04 4.6-14.3z" fill="#c92d39"/>
        <path d="M605.7 960.66l-10.63.04 5.26-16.4zm-9.26-.97l7.9-.03-4-12.14zM601.2 1047.93h-.5.5z" fill="#c92d39"/>
        <path d="M653.26 958.52l37 61.15" fill="none"/>
        <path d="M653.26 958.52l2.47 4.07m2.46 4.07l4.92 8.15m2.47 4.08l4.92 8.15m2.47 4.08l4.92 8.15m2.47 4.08l4.92 8.15m2.47 4.1l2.45 4.07" stroke="#c92d39" fill="none"/>
        <path d="M656.85 955.5l-7.94 4.8-3.4-14.62z" fill="#c92d39"/>
        <path d="M657.7 955.56l-9.12 5.5-3.92-16.76zm-8.46 3.94l6.76-4.08-9.67-8.35zM690.84 1019.67h-.6l.44-.26z" fill="#c92d39"/>
        <path d="M668.33 1005.63l-38.87-61.33" fill="none"/>
        <path d="M668.33 1005.63l-2.6-4.1m-2.58-4.08l-5.2-8.18m-2.58-4.08l-5.18-8.2m-2.6-4.08l-5.18-8.18m-2.6-4.1l-5.18-8.17m-2.6-4.08l-2.58-4.1" stroke="#c92d39" fill="none"/>
        <path d="M676.36 1018.3l-11.55-9.57 7.84-4.96z" fill="#c92d39"/>
        <path d="M677.23 1019.67l-13.27-11 9-5.7zm-11.57-10.88l9.83 8.13-3.18-12.37zM629.88 944.03l-.84.53-.5-.76h1.2z" fill="#c92d39"/>
        <path d="M542.07 944.3l-23.3 60.2" stroke="#19967d" fill="none"/>
        <path d="M542.54 944.48l-.94-.36.13-.32h1.07zM522.82 1006.86l-9.48 11.63.83-15z" fill="#19967d"/>
        <path d="M523.64 1006.64L512.76 1020l.95-17.2zm-9.7 10.34l8.06-9.9-7.37-2.85z" fill="#19967d"/>
        <path d="M582.24 944.3l-1.9 89.1" stroke="#19967d" fill="none"/>
        <path d="M582.74 944.3h-1v-.5h1z" fill="#19967d"/>
        <path d="M580.03 1048.38l-4.33-14.36 9.27.2z" stroke="#19967d" fill="#19967d"/>
        <path d="M615.35 944.3l42.08 66.33" stroke="#19967d" fill="none"/>
        <path d="M615.77 944.03l-.84.53-.5-.76h1.2zM665.47 1023.3l-11.56-9.56 7.84-4.97z" fill="#19967d"/>
        <path d="M666.33 1024.67l-13.27-11 9-5.7zm-11.57-10.88l9.84 8.13-3.17-12.37z" fill="#19967d"/>
        <path d="M763.76 999.66l-11.63-62.76" fill="none"/>
        <path d="M763.76 999.66l-.97-5.23m-.98-5.23l-1.94-10.46m-.97-5.23l-1.93-10.45m-.96-5.23l-1.93-10.46m-.97-5.23l-.97-5.23" stroke="#c92d39" fill="none"/>
        <path d="M766.5 1014.4l-7.17-13.17 9.12-1.7z" fill="#c92d39"/>
        <path d="M766.8 1016l-8.23-15.14 10.46-1.94zm-6.7-14.4l6.1 11.22 1.66-12.67zM752.62 936.8l-.98.2-.1-.6h1z" fill="#c92d39"/>
        <path d="M765.9 953.26l11.2 62.74" fill="none"/>
        <path d="M765.9 953.26l.94 5.23m.93 5.22l1.87 10.46m.93 5.22l1.86 10.46m.94 5.23l1.86 10.44m.94 5.23l.93 5.23" stroke="#c92d39" fill="none"/>
        <path d="M770.34 951.73l-9.13 1.63 2.07-14.86z" fill="#c92d39"/>
        <path d="M771.1 952.1l-10.48 1.87L763 936.9zm-9.3.64l7.77-1.38-6.02-11.27zM777.6 1016h-.5l.5-.1z" fill="#c92d39"/>
        <path d="M837.95 947.8l55.85 48.53" fill="none"/>
        <path d="M837.95 947.8l3.72 3.24m3.73 3.23l7.44 6.48m3.73 3.23l7.44 6.47m3.74 3.24l7.44 6.46m3.72 3.23l7.45 6.46m3.72 3.24l3.73 3.23" stroke="#c92d39" fill="none"/>
        <path d="M840.44 943.82l-6.08 7-7.73-12.85z" fill="#c92d39"/>
        <path d="M841.26 943.63l-6.98 8.04-8.87-14.77zm-6.83 6.34l5.18-5.95-11.75-5zM894.56 996.33h-.76l.33-.37z" fill="#c92d39"/>
        <path d="M867 984.98l-51.36-48.08" fill="none"/>
        <path d="M867 984.98l-3.42-3.2m-3.42-3.2l-6.85-6.42m-3.42-3.2l-6.85-6.42m-3.42-3.2l-6.84-6.4m-3.42-3.22l-6.85-6.4m-3.44-3.2l-3.42-3.22" stroke="#c92d39" fill="none"/>
        <path d="M877.96 995.23l-13.58-6.37 6.33-6.76z" fill="#c92d39"/>
        <path d="M879.14 996.33l-15.6-7.3 7.28-7.78zm-13.93-7.63l11.58 5.42-6.17-11.18zM815.98 936.54l-.7.73-.9-.87h1.45z" fill="#c92d39"/>
        <path d="M460 727c0-2.76 2.24-5 5-5h30c2.76 0 5 2.24 5 5v11.6c0 2.76-2.24 5-5 5h-30c-2.76 0-5-2.24-5-5z" fill="none"/>
        <use xlink:href="#r" transform="matrix(1,0,0,1,460,722) translate(15.679012345679013 14.11111111111111)"/>
        <path d="M288 835c0-2.76 2.24-5 5-5h12c2.76 0 5 2.24 5 5v12c0 2.76-2.24 5-5 5h-12c-2.76 0-5-2.24-5-5z" fill="none"/>
        <use xlink:href="#s" transform="matrix(1,0,0,1,288,830) translate(6.679012345679013 14.11111111111111)"/>
        <path d="M180 923c0-2.76 2.24-5 5-5h12c2.76 0 5 2.24 5 5v12c0 2.76-2.24 5-5 5h-12c-2.76 0-5-2.24-5-5z" fill="none"/>
        <use xlink:href="#t" transform="matrix(1,0,0,1,180,918) translate(6.679012345679013 14.11111111111111)"/>
        <path d="M316.7 865c0-2.76 2.24-5 5-5h12c2.76 0 5 2.24 5 5v12c0 2.76-2.24 5-5 5h-12c-2.76 0-5-2.24-5-5z" fill="none"/>
        <use xlink:href="#u" transform="matrix(1,0,0,1,316.70212887023865,860) translate(6.679012345679013 14.11111111111111)"/>
        <path d="M280 1017.87c0-2.76 2.24-5 5-5h12c2.76 0 5 2.24 5 5v12c0 2.76-2.24 5-5 5h-12c-2.76 0-5-2.24-5-5z" fill="none"/>
        <use xlink:href="#v" transform="matrix(1,0,0,1,280,1012.8687955369444) translate(6.679012345679013 14.11111111111111)"/>
        <path d="M430 827.06c0-2.76 2.24-5 5-5h12c2.76 0 5 2.24 5 5v12c0 2.76-2.24 5-5 5h-12c-2.76 0-5-2.24-5-5z" fill="none"/>
        <use xlink:href="#w" transform="matrix(1,0,0,1,430,822.0591036726203) translate(6.679012345679013 14.11111111111111)"/>
        <path d="M413 961c0-2.76 2.24-5 5-5h12c2.76 0 5 2.24 5 5v12c0 2.76-2.24 5-5 5h-12c-2.76 0-5-2.24-5-5z" fill="none"/>
        <use xlink:href="#x" transform="matrix(1,0,0,1,413,956) translate(6.679012345679013 14.11111111111111)"/>
        <path d="M463 932.06c0-2.76 2.24-5 5-5h12c2.76 0 5 2.24 5 5v12c0 2.76-2.24 5-5 5h-12c-2.76 0-5-2.24-5-5z" fill="none"/>
        <use xlink:href="#y" transform="matrix(1,0,0,1,463,927.0591036726203) translate(6.679012345679013 14.11111111111111)"/>
        <path d="M604 727c0-2.76 2.24-5 5-5h12c2.76 0 5 2.24 5 5v12c0 2.76-2.24 5-5 5h-12c-2.76 0-5-2.24-5-5z" fill="none"/>
        <use xlink:href="#z" transform="matrix(1,0,0,1,604,722) translate(6.679012345679013 14.11111111111111)"/>
        <path d="M431 705c0-2.76 2.24-5 5-5h10c2.76 0 5 2.24 5 5v12c0 2.76-2.24 5-5 5h-10c-2.76 0-5-2.24-5-5z" fill="none"/>
        <use xlink:href="#A" transform="matrix(1,0,0,1,431,700) translate(5.679012345679013 14.11111111111111)"/>
        <path d="M393 835c0-2.76 2.24-5 5-5h10c2.76 0 5 2.24 5 5v12c0 2.76-2.24 5-5 5h-10c-2.76 0-5-2.24-5-5z" fill="none"/>
        <use xlink:href="#B" transform="matrix(1,0,0,1,393,830) translate(5.679012345679013 14.11111111111111)"/>
        <path d="M374.56 932c0-2.76 2.24-5 5-5h10c2.76 0 5 2.24 5 5v12c0 2.76-2.24 5-5 5h-10c-2.76 0-5-2.24-5-5z" fill="none"/>
        <use xlink:href="#C" transform="matrix(1,0,0,1,374.5585154809553,927) translate(5.679012345679013 14.11111111111111)"/>
        <path d="M423 932c0-2.76 2.24-5 5-5h10c2.76 0 5 2.24 5 5v12c0 2.76-2.24 5-5 5h-10c-2.76 0-5-2.24-5-5z" fill="none"/>
        <use xlink:href="#D" transform="matrix(1,0,0,1,423,927) translate(5.679012345679013 14.11111111111111)"/>
        <path d="M604 865c0-2.76 2.24-5 5-5h12c2.76 0 5 2.24 5 5v12c0 2.76-2.24 5-5 5h-12c-2.76 0-5-2.24-5-5z" fill="none"/>
        <use xlink:href="#z" transform="matrix(1,0,0,1,604,860) translate(6.679012345679013 14.11111111111111)"/>
        <path d="M540 1002c0-2.76 2.24-5 5-5h12c2.76 0 5 2.24 5 5v12c0 2.76-2.24 5-5 5h-12c-2.76 0-5-2.24-5-5z" fill="none"/>
        <use xlink:href="#E" transform="matrix(1,0,0,1,540,997) translate(2.3580246913580254 14.11111111111111)"/>
        <path d="M603.17 1010c0-2.76 2.24-5 5-5h12c2.76 0 5 2.24 5 5v12c0 2.76-2.24 5-5 5h-12c-2.76 0-5-2.24-5-5z" fill="none"/>
        <use xlink:href="#F" transform="matrix(1,0,0,1,603.1666666666665,1005) translate(2.9413580246913575 14.11111111111111)"/>
        <path d="M678 985c0-2.76 2.24-5 5-5h12c2.76 0 5 2.24 5 5v12c0 2.76-2.24 5-5 5h-12c-2.76 0-5-2.24-5-5z" fill="none"/>
        <use xlink:href="#G" transform="matrix(1,0,0,1,678,980) translate(2.3580246913580254 14.11111111111111)"/>
        <path d="M730 855c0-2.76 2.24-5 5-5h12c2.76 0 5 2.24 5 5v12c0 2.76-2.24 5-5 5h-12c-2.76 0-5-2.24-5-5z" fill="none"/>
        <use xlink:href="#H" transform="matrix(1,0,0,1,730,850) translate(2.3580246913580254 14.11111111111111)"/>
        <path d="M770 972.9c0-2.76 2.24-5 5-5h12c2.76 0 5 2.24 5 5v12c0 2.77-2.24 5-5 5h-12c-2.76 0-5-2.23-5-5z" fill="none"/>
        <use xlink:href="#I" transform="matrix(1,0,0,1,770,967.9042577404774) translate(2.3580246913580254 14.11111111111111)"/>
        <path d="M862 955c0-2.76 2.24-5 5-5h12c2.76 0 5 2.24 5 5v12c0 2.76-2.24 5-5 5h-12c-2.76 0-5-2.24-5-5z" fill="none"/>
        <use xlink:href="#J" transform="matrix(1,0,0,1,862,950) translate(2.3580246913580254 14.11111111111111)"/>
        <path d="M678 705c0-2.76 2.24-5 5-5h12c2.76 0 5 2.24 5 5v12c0 2.76-2.24 5-5 5h-12c-2.76 0-5-2.24-5-5z" fill="none"/>
        <use xlink:href="#K" transform="matrix(1,0,0,1,678,700) translate(2.3580246913580254 14.11111111111111)"/>
        <path d="M560 732.57c0-2.77 2.24-5 5-5h10c2.76 0 5 2.23 5 5v12c0 2.76-2.24 5-5 5h-10c-2.76 0-5-2.24-5-5z" fill="none"/>
        <use xlink:href="#L" transform="matrix(1,0,0,1,560,727.5650140398824) translate(5.679012345679013 14.11111111111111)"/>
        <path d="M560 863.9c0-2.76 2.24-5 5-5h10c2.76 0 5 2.24 5 5v12c0 2.76-2.24 5-5 5h-10c-2.76 0-5-2.24-5-5z" fill="none"/>
        <use xlink:href="#M" transform="matrix(1,0,0,1,560,858.8983473732156) translate(5.679012345679013 14.11111111111111)"/>
        <path d="M511 973c0-2.76 2.24-5 5-5h10c2.76 0 5 2.24 5 5v12c0 2.76-2.24 5-5 5h-10c-2.76 0-5-2.24-5-5z" fill="none"/>
        <use xlink:href="#N" transform="matrix(1,0,0,1,511,968) translate(5.679012345679013 14.11111111111111)"/>
        <path d="M560 980.46c0-2.76 2.24-5 5-5h10c2.76 0 5 2.24 5 5v12c0 2.76-2.24 5-5 5h-10c-2.76 0-5-2.24-5-5z" fill="none"/>
        <use xlink:href="#O" transform="matrix(1,0,0,1,560,975.4633614130978) translate(5.679012345679013 14.11111111111111)"/>
        <path d="M619 980.46c0-2.76 2.24-5 5-5h10c2.76 0 5 2.24 5 5v12c0 2.76-2.24 5-5 5h-10c-2.76 0-5-2.24-5-5z" fill="none"/>
        <use xlink:href="#P" transform="matrix(1,0,0,1,619,975.4633614130978) translate(5.679012345679013 14.11111111111111)"/>
        <path d="M668 865c0-2.76 2.24-5 5-5h10c2.76 0 5 2.24 5 5v12c0 2.76-2.24 5-5 5h-10c-2.76 0-5-2.24-5-5z" fill="none"/>
        <use xlink:href="#Q" transform="matrix(1,0,0,1,668,860) translate(1.3580246913580254 14.11111111111111)"/>
        <path d="M725 970.2c0-2.76 2.24-5 5-5h10c2.76 0 5 2.24 5 5v12c0 2.76-2.24 5-5 5h-10c-2.76 0-5-2.24-5-5z" fill="none"/>
        <use xlink:href="#R" transform="matrix(1,0,0,1,725,965.2021288702388) translate(1.9413580246913575 14.11111111111111)"/>
        <path d="M810 972.9c0-2.76 2.24-5 5-5h10c2.76 0 5 2.24 5 5v12c0 2.77-2.24 5-5 5h-10c-2.76 0-5-2.23-5-5z" fill="none"/>
        <g>
            <use xlink:href="#S" transform="matrix(1,0,0,1,810,967.9042577404774) translate(1.3580246913580254 14.11111111111111)"/>
        </g>
        <defs>
            <path d="M30-248c118-7 216 8 213 122C240-48 200 0 122 0H30v-248zM63-27c89 8 146-16 146-99s-60-101-146-95v194" id="T"/>
            <path d="M140-251c81 0 123 46 123 126C263-46 219 4 140 4 59 4 17-45 17-125s42-126 123-126zm0 227c63 0 89-41 89-101s-29-99-89-99c-61 0-89 39-89 99S79-25 140-24" id="U"/>
            <path d="M212-179c-10-28-35-45-73-45-59 0-87 40-87 99 0 60 29 101 89 101 43 0 62-24 78-52l27 14C228-24 195 4 139 4 59 4 22-46 18-125c-6-104 99-153 187-111 19 9 31 26 39 46" id="V"/>
            <g id="a">
                <use transform="matrix(0.04938271604938272,0,0,0.04938271604938272,0,0)" xlink:href="#T"/>
                <use transform="matrix(0.04938271604938272,0,0,0.04938271604938272,12.790123456790125,0)" xlink:href="#U"/>
                <use transform="matrix(0.04938271604938272,0,0,0.04938271604938272,26.617283950617285,0)" xlink:href="#V"/>
            </g>
            <path d="M197 0v-115H63V0H30v-248h33v105h134v-105h34V0h-34" id="W"/>
            <path d="M127-220V0H93v-220H8v-28h204v28h-85" id="X"/>
            <path d="M240 0l2-218c-23 76-54 145-80 218h-23L58-218 59 0H30v-248h44l77 211c21-75 51-140 76-211h43V0h-30" id="Y"/>
            <path d="M30 0v-248h33v221h125V0H30" id="Z"/>
            <g id="b">
                <use transform="matrix(0.04938271604938272,0,0,0.04938271604938272,0,0)" xlink:href="#W"/>
                <use transform="matrix(0.04938271604938272,0,0,0.04938271604938272,12.790123456790125,0)" xlink:href="#X"/>
                <use transform="matrix(0.04938271604938272,0,0,0.04938271604938272,23.60493827160494,0)" xlink:href="#Y"/>
                <use transform="matrix(0.04938271604938272,0,0,0.04938271604938272,38.370370370370374,0)" xlink:href="#Z"/>
            </g>
            <path d="M30-248c87 1 191-15 191 75 0 78-77 80-158 76V0H30v-248zm33 125c57 0 124 11 124-50 0-59-68-47-124-48v98" id="aa"/>
            <g id="c">
                <use transform="matrix(0.04938271604938272,0,0,0.04938271604938272,0,0)" xlink:href="#aa"/>
                <use transform="matrix(0.04938271604938272,0,0,0.04938271604938272,11.851851851851853,0)" xlink:href="#W"/>
                <use transform="matrix(0.04938271604938272,0,0,0.04938271604938272,24.641975308641978,0)" xlink:href="#aa"/>
            </g>
            <path d="M205 0l-28-72H64L36 0H1l101-248h38L239 0h-34zm-38-99l-47-123c-12 45-31 82-46 123h93" id="ab"/>
            <path d="M135-143c-3-34-86-38-87 0 15 53 115 12 119 90S17 21 10-45l28-5c4 36 97 45 98 0-10-56-113-15-118-90-4-57 82-63 122-42 12 7 21 19 24 35" id="ac"/>
            <path d="M24-231v-30h32v30H24zM24 0v-190h32V0H24" id="ad"/>
            <path d="M177-190C167-65 218 103 67 71c-23-6-38-20-44-43l32-5c15 47 100 32 89-28v-30C133-14 115 1 83 1 29 1 15-40 15-95c0-56 16-97 71-98 29-1 48 16 59 35 1-10 0-23 2-32h30zM94-22c36 0 50-32 50-73 0-42-14-75-50-75-39 0-46 34-46 75s6 73 46 73" id="ae"/>
            <path d="M117-194c89-4 53 116 60 194h-32v-121c0-31-8-49-39-48C34-167 62-67 57 0H25l-1-190h30c1 10-1 24 2 32 11-22 29-35 61-36" id="af"/>
            <g id="d">
                <use transform="matrix(0.04938271604938272,0,0,0.04938271604938272,0,0)" xlink:href="#ab"/>
                <use transform="matrix(0.04938271604938272,0,0,0.04938271604938272,11.851851851851853,0)" xlink:href="#ac"/>
                <use transform="matrix(0.04938271604938272,0,0,0.04938271604938272,20.74074074074074,0)" xlink:href="#ac"/>
                <use transform="matrix(0.04938271604938272,0,0,0.04938271604938272,29.629629629629633,0)" xlink:href="#ad"/>
                <use transform="matrix(0.04938271604938272,0,0,0.04938271604938272,33.53086419753087,0)" xlink:href="#ae"/>
                <use transform="matrix(0.04938271604938272,0,0,0.04938271604938272,43.40740740740741,0)" xlink:href="#af"/>
            </g>
            <path d="M30 0v-248h187v28H63v79h144v27H63v87h162V0H30" id="ag"/>
            <path d="M96-169c-40 0-48 33-48 73s9 75 48 75c24 0 41-14 43-38l32 2c-6 37-31 61-74 61-59 0-76-41-82-99-10-93 101-131 147-64 4 7 5 14 7 22l-32 3c-4-21-16-35-41-35" id="ah"/>
            <path d="M106-169C34-169 62-67 57 0H25v-261h32l-1 103c12-21 28-36 61-36 89 0 53 116 60 194h-32v-121c2-32-8-49-39-48" id="ai"/>
            <path d="M100-194c62-1 85 37 85 99 1 63-27 99-86 99S16-35 15-95c0-66 28-99 85-99zM99-20c44 1 53-31 53-75 0-43-8-75-51-75s-53 32-53 75 10 74 51 75" id="aj"/>
            <g id="e">
                <use transform="matrix(0.04938271604938272,0,0,0.04938271604938272,0,0)" xlink:href="#ag"/>
                <use transform="matrix(0.04938271604938272,0,0,0.04938271604938272,11.851851851851853,0)" xlink:href="#ah"/>
                <use transform="matrix(0.04938271604938272,0,0,0.04938271604938272,20.74074074074074,0)" xlink:href="#ai"/>
                <use transform="matrix(0.04938271604938272,0,0,0.04938271604938272,30.617283950617285,0)" xlink:href="#aj"/>
            </g>
            <path d="M141-36C126-15 110 5 73 4 37 3 15-17 15-53c-1-64 63-63 125-63 3-35-9-54-41-54-24 1-41 7-42 31l-33-3c5-37 33-52 76-52 45 0 72 20 72 64v82c-1 20 7 32 28 27v20c-31 9-61-2-59-35zM48-53c0 20 12 33 32 33 41-3 63-29 60-74-43 2-92-5-92 41" id="ak"/>
            <use transform="matrix(0.04938271604938272,0,0,0.04938271604938272,0,0)" xlink:href="#ak" id="f"/>
            <path d="M18-150v-26h174v26H18zm0 90v-26h174v26H18" id="al"/>
            <use transform="matrix(0.04938271604938272,0,0,0.04938271604938272,0,0)" xlink:href="#al" id="g"/>
            <path d="M115-194c53 0 69 39 70 98 0 66-23 100-70 100C84 3 66-7 56-30L54 0H23l1-261h32v101c10-23 28-34 59-34zm-8 174c40 0 45-34 45-75 0-40-5-75-45-74-42 0-51 32-51 76 0 43 10 73 51 73" id="am"/>
            <use transform="matrix(0.04938271604938272,0,0,0.04938271604938272,0,0)" xlink:href="#am" id="h"/>
            <path d="M100-194c63 0 86 42 84 106H49c0 40 14 67 53 68 26 1 43-12 49-29l28 8c-11 28-37 45-77 45C44 4 14-33 15-96c1-61 26-98 85-98zm52 81c6-60-76-77-97-28-3 7-6 17-6 28h103" id="an"/>
            <g id="i">
                <use transform="matrix(0.04938271604938272,0,0,0.04938271604938272,0,0)" xlink:href="#an"/>
                <use transform="matrix(0.04938271604938272,0,0,0.04938271604938272,9.876543209876544,0)" xlink:href="#ah"/>
                <use transform="matrix(0.04938271604938272,0,0,0.04938271604938272,18.765432098765434,0)" xlink:href="#ai"/>
                <use transform="matrix(0.04938271604938272,0,0,0.04938271604938272,28.641975308641978,0)" xlink:href="#aj"/>
            </g>
            <path d="M109-170H84l-4-78h32zm-65 0H19l-4-78h33" id="ao"/>
            <path d="M24 0v-261h32V0H24" id="ap"/>
            <g id="j">
                <use transform="matrix(0.04938271604938272,0,0,0.04938271604938272,0,0)" xlink:href="#ao"/>
                <use transform="matrix(0.04938271604938272,0,0,0.04938271604938272,6.271604938271605,0)" xlink:href="#W"/>
                <use transform="matrix(0.04938271604938272,0,0,0.04938271604938272,19.06172839506173,0)" xlink:href="#an"/>
                <use transform="matrix(0.04938271604938272,0,0,0.04938271604938272,28.938271604938276,0)" xlink:href="#ap"/>
                <use transform="matrix(0.04938271604938272,0,0,0.04938271604938272,32.83950617283951,0)" xlink:href="#ap"/>
                <use transform="matrix(0.04938271604938272,0,0,0.04938271604938272,36.74074074074075,0)" xlink:href="#aj"/>
                <use transform="matrix(0.04938271604938272,0,0,0.04938271604938272,46.61728395061729,0)" xlink:href="#ao"/>
            </g>
            <path d="M185-189c-5-48-123-54-124 2 14 75 158 14 163 119 3 78-121 87-175 55-17-10-28-26-33-46l33-7c5 56 141 63 141-1 0-78-155-14-162-118-5-82 145-84 179-34 5 7 8 16 11 25" id="aq"/>
            <g id="k">
                <use transform="matrix(0.04938271604938272,0,0,0.04938271604938272,0,0)" xlink:href="#V"/>
                <use transform="matrix(0.04938271604938272,0,0,0.04938271604938272,12.790123456790125,0)" xlink:href="#aq"/>
                <use transform="matrix(0.04938271604938272,0,0,0.04938271604938272,24.641975308641978,0)" xlink:href="#aq"/>
            </g>
            <path d="M33 0v-38h34V0H33" id="ar"/>
            <g id="l">
                <use transform="matrix(0.04938271604938272,0,0,0.04938271604938272,0,0)" xlink:href="#ar"/>
                <use transform="matrix(0.04938271604938272,0,0,0.04938271604938272,4.938271604938272,0)" xlink:href="#ar"/>
                <use transform="matrix(0.04938271604938272,0,0,0.04938271604938272,9.876543209876544,0)" xlink:href="#ar"/>
            </g>
            <path fill="#c92d39" d="M30 0v-248h33v221h125V0H30" id="as"/>
            <path fill="#c92d39" d="M24-231v-30h32v30H24zM24 0v-190h32V0H24" id="at"/>
            <path fill="#c92d39" d="M135-143c-3-34-86-38-87 0 15 53 115 12 119 90S17 21 10-45l28-5c4 36 97 45 98 0-10-56-113-15-118-90-4-57 82-63 122-42 12 7 21 19 24 35" id="au"/>
            <path fill="#c92d39" d="M59-47c-2 24 18 29 38 22v24C64 9 27 4 27-40v-127H5v-23h24l9-43h21v43h35v23H59v120" id="av"/>
            <path fill="#c92d39" d="M100-194c63 0 86 42 84 106H49c0 40 14 67 53 68 26 1 43-12 49-29l28 8c-11 28-37 45-77 45C44 4 14-33 15-96c1-61 26-98 85-98zm52 81c6-60-76-77-97-28-3 7-6 17-6 28h103" id="aw"/>
            <path fill="#c92d39" d="M117-194c89-4 53 116 60 194h-32v-121c0-31-8-49-39-48C34-167 62-67 57 0H25l-1-190h30c1 10-1 24 2 32 11-22 29-35 61-36" id="ax"/>
            <path fill="#c92d39" d="M114-163C36-179 61-72 57 0H25l-1-190h30c1 12-1 29 2 39 6-27 23-49 58-41v29" id="ay"/>
            <g id="m">
                <use transform="matrix(0.04938271604938272,0,0,0.04938271604938272,0,0)" xlink:href="#as"/>
                <use transform="matrix(0.04938271604938272,0,0,0.04938271604938272,9.876543209876544,0)" xlink:href="#at"/>
                <use transform="matrix(0.04938271604938272,0,0,0.04938271604938272,13.777777777777779,0)" xlink:href="#au"/>
                <use transform="matrix(0.04938271604938272,0,0,0.04938271604938272,22.666666666666668,0)" xlink:href="#av"/>
                <use transform="matrix(0.04938271604938272,0,0,0.04938271604938272,27.60493827160494,0)" xlink:href="#aw"/>
                <use transform="matrix(0.04938271604938272,0,0,0.04938271604938272,37.48148148148148,0)" xlink:href="#ax"/>
                <use transform="matrix(0.04938271604938272,0,0,0.04938271604938272,47.358024691358025,0)" xlink:href="#aw"/>
                <use transform="matrix(0.04938271604938272,0,0,0.04938271604938272,57.23456790123457,0)" xlink:href="#ay"/>
            </g>
            <path fill="#c92d39" d="M87 75C49 33 22-17 22-94c0-76 28-126 65-167h31c-38 41-64 92-64 168S80 34 118 75H87" id="az"/>
            <path fill="#c92d39" d="M33-261c38 41 65 92 65 168S71 34 33 75H2C39 34 66-17 66-93S39-220 2-261h31" id="aA"/>
            <path fill="#c92d39" d="M68-38c1 34 0 65-14 84H32c9-13 17-26 17-46H33v-38h35" id="aB"/>
            <g id="n">
                <use transform="matrix(0.043209876543209874,0,0,0.043209876543209874,0,0)" xlink:href="#aw"/>
                <use transform="matrix(0.043209876543209874,0,0,0.043209876543209874,8.641975308641975,0)" xlink:href="#ax"/>
                <use transform="matrix(0.043209876543209874,0,0,0.043209876543209874,17.28395061728395,0)" xlink:href="#av"/>
                <use transform="matrix(0.043209876543209874,0,0,0.043209876543209874,21.604938271604937,0)" xlink:href="#aw"/>
                <use transform="matrix(0.043209876543209874,0,0,0.043209876543209874,30.24691358024691,0)" xlink:href="#ay"/>
                <use transform="matrix(0.043209876543209874,0,0,0.043209876543209874,35.388888888888886,0)" xlink:href="#az"/>
                <use transform="matrix(0.043209876543209874,0,0,0.043209876543209874,40.53086419753086,0)" xlink:href="#aA"/>
                <use transform="matrix(0.043209876543209874,0,0,0.043209876543209874,45.672839506172835,0)" xlink:href="#aB"/>
            </g>
            <path fill="#c92d39" d="M141 0L90-78 38 0H4l68-98-65-92h35l48 74 47-74h35l-64 92 68 98h-35" id="aC"/>
            <g id="o">
                <use transform="matrix(0.043209876543209874,0,0,0.043209876543209874,0,0)" xlink:href="#aw"/>
                <use transform="matrix(0.043209876543209874,0,0,0.043209876543209874,8.641975308641975,0)" xlink:href="#aC"/>
                <use transform="matrix(0.043209876543209874,0,0,0.043209876543209874,16.419753086419753,0)" xlink:href="#at"/>
                <use transform="matrix(0.043209876543209874,0,0,0.043209876543209874,19.833333333333332,0)" xlink:href="#av"/>
                <use transform="matrix(0.043209876543209874,0,0,0.043209876543209874,24.15432098765432,0)" xlink:href="#az"/>
                <use transform="matrix(0.043209876543209874,0,0,0.043209876543209874,29.296296296296294,0)" xlink:href="#aA"/>
            </g>
            <path fill="#19967d" d="M137 0h-34L2-248h35l83 218 83-218h36" id="aD"/>
            <path fill="#19967d" d="M24-231v-30h32v30H24zM24 0v-190h32V0H24" id="aE"/>
            <path fill="#19967d" d="M135-143c-3-34-86-38-87 0 15 53 115 12 119 90S17 21 10-45l28-5c4 36 97 45 98 0-10-56-113-15-118-90-4-57 82-63 122-42 12 7 21 19 24 35" id="aF"/>
            <path fill="#19967d" d="M59-47c-2 24 18 29 38 22v24C64 9 27 4 27-40v-127H5v-23h24l9-43h21v43h35v23H59v120" id="aG"/>
            <path fill="#19967d" d="M100-194c62-1 85 37 85 99 1 63-27 99-86 99S16-35 15-95c0-66 28-99 85-99zM99-20c44 1 53-31 53-75 0-43-8-75-51-75s-53 32-53 75 10 74 51 75" id="aH"/>
            <path fill="#19967d" d="M114-163C36-179 61-72 57 0H25l-1-190h30c1 12-1 29 2 39 6-27 23-49 58-41v29" id="aI"/>
            <g id="p">
                <use transform="matrix(0.04938271604938272,0,0,0.04938271604938272,0,0)" xlink:href="#aD"/>
                <use transform="matrix(0.04938271604938272,0,0,0.04938271604938272,11.506172839506174,0)" xlink:href="#aE"/>
                <use transform="matrix(0.04938271604938272,0,0,0.04938271604938272,15.407407407407408,0)" xlink:href="#aF"/>
                <use transform="matrix(0.04938271604938272,0,0,0.04938271604938272,24.296296296296298,0)" xlink:href="#aE"/>
                <use transform="matrix(0.04938271604938272,0,0,0.04938271604938272,28.19753086419753,0)" xlink:href="#aG"/>
                <use transform="matrix(0.04938271604938272,0,0,0.04938271604938272,33.135802469135804,0)" xlink:href="#aH"/>
                <use transform="matrix(0.04938271604938272,0,0,0.04938271604938272,43.01234567901235,0)" xlink:href="#aI"/>
            </g>
            <path fill="#19967d" d="M108 0H70L1-190h34L89-25l56-165h34" id="aJ"/>
            <path fill="#19967d" d="M87 75C49 33 22-17 22-94c0-76 28-126 65-167h31c-38 41-64 92-64 168S80 34 118 75H87" id="aK"/>
            <path fill="#19967d" d="M33-261c38 41 65 92 65 168S71 34 33 75H2C39 34 66-17 66-93S39-220 2-261h31" id="aL"/>
            <g id="q">
                <use transform="matrix(0.043209876543209874,0,0,0.043209876543209874,0,0)" xlink:href="#aJ"/>
                <use transform="matrix(0.043209876543209874,0,0,0.043209876543209874,7.777777777777778,0)" xlink:href="#aE"/>
                <use transform="matrix(0.043209876543209874,0,0,0.043209876543209874,11.191358024691358,0)" xlink:href="#aF"/>
                <use transform="matrix(0.043209876543209874,0,0,0.043209876543209874,18.969135802469136,0)" xlink:href="#aE"/>
                <use transform="matrix(0.043209876543209874,0,0,0.043209876543209874,22.382716049382715,0)" xlink:href="#aG"/>
                <use transform="matrix(0.043209876543209874,0,0,0.043209876543209874,26.703703703703702,0)" xlink:href="#aK"/>
                <use transform="matrix(0.043209876543209874,0,0,0.043209876543209874,31.845679012345677,0)" xlink:href="#aL"/>
            </g>
            <path fill="#c92d39" d="M27 0v-27h64v-190l-56 39v-29l58-41h29v221h61V0H27" id="aM"/>
            <use transform="matrix(0.043209876543209874,0,0,0.043209876543209874,0,0)" xlink:href="#aM" id="r"/>
            <path fill="#c92d39" d="M101-251c82-7 93 87 43 132L82-64C71-53 59-42 53-27h129V0H18c2-99 128-94 128-182 0-28-16-43-45-43s-46 15-49 41l-32-3c6-41 34-60 81-64" id="aN"/>
            <use transform="matrix(0.043209876543209874,0,0,0.043209876543209874,0,0)" xlink:href="#aN" id="s"/>
            <path fill="#c92d39" d="M126-127c33 6 58 20 58 59 0 88-139 92-164 29-3-8-5-16-6-25l32-3c6 27 21 44 54 44 32 0 52-15 52-46 0-38-36-46-79-43v-28c39 1 72-4 72-42 0-27-17-43-46-43-28 0-47 15-49 41l-32-3c6-42 35-63 81-64 48-1 79 21 79 65 0 36-21 52-52 59" id="aO"/>
            <use transform="matrix(0.043209876543209874,0,0,0.043209876543209874,0,0)" xlink:href="#aO" id="t"/>
            <path fill="#c92d39" d="M155-56V0h-30v-56H8v-25l114-167h33v167h35v25h-35zm-30-156c-27 46-58 90-88 131h88v-131" id="aP"/>
            <use transform="matrix(0.043209876543209874,0,0,0.043209876543209874,0,0)" xlink:href="#aP" id="u"/>
            <path fill="#c92d39" d="M54-142c48-35 137-8 131 61C196 18 31 33 14-55l32-4c7 23 22 37 52 37 35-1 51-22 54-58 4-55-73-65-99-34H22l8-134h141v27H59" id="aQ"/>
            <use transform="matrix(0.043209876543209874,0,0,0.043209876543209874,0,0)" xlink:href="#aQ" id="v"/>
            <path fill="#c92d39" d="M110-160c48 1 74 30 74 79 0 53-28 85-80 85-65 0-83-55-86-122-5-90 50-162 133-122 14 7 22 21 27 39l-31 6c-5-40-67-38-82-6-9 19-15 44-15 74 11-20 30-34 60-33zm-7 138c34 0 49-23 49-58s-16-56-50-56c-29 0-50 16-49 49 1 36 15 65 50 65" id="aR"/>
            <use transform="matrix(0.043209876543209874,0,0,0.043209876543209874,0,0)" xlink:href="#aR" id="w"/>
            <path fill="#c92d39" d="M64 0c3-98 48-159 88-221H18v-27h164v26C143-157 98-101 97 0H64" id="aS"/>
            <use transform="matrix(0.043209876543209874,0,0,0.043209876543209874,0,0)" xlink:href="#aS" id="x"/>
            <path fill="#c92d39" d="M134-131c28 9 52 24 51 62-1 50-34 73-85 73S17-19 16-69c0-36 21-54 49-61-75-25-45-126 34-121 46 3 78 18 79 63 0 33-17 51-44 57zm-34-11c31 1 46-15 46-44 0-28-17-43-47-42-29 0-46 13-45 42 1 28 16 44 46 44zm1 122c35 0 51-18 51-52 0-30-18-46-53-46-33 0-51 17-51 47 0 34 19 51 53 51" id="aT"/>
            <use transform="matrix(0.043209876543209874,0,0,0.043209876543209874,0,0)" xlink:href="#aT" id="y"/>
            <path fill="#c92d39" d="M99-251c64 0 84 50 84 122C183-37 130 33 47-8c-14-7-20-23-25-40l30-5c6 39 69 39 84 7 9-19 16-44 16-74-10 22-31 35-62 35-49 0-73-33-73-83 0-54 28-83 82-83zm-1 141c31-1 51-18 51-49 0-36-14-67-51-67-34 0-49 23-49 58 0 34 15 58 49 58" id="aU"/>
            <use transform="matrix(0.043209876543209874,0,0,0.043209876543209874,0,0)" xlink:href="#aU" id="z"/>
            <path fill="#19967d" d="M27 0v-27h64v-190l-56 39v-29l58-41h29v221h61V0H27" id="aV"/>
            <use transform="matrix(0.043209876543209874,0,0,0.043209876543209874,0,0)" xlink:href="#aV" id="A"/>
            <path fill="#19967d" d="M101-251c82-7 93 87 43 132L82-64C71-53 59-42 53-27h129V0H18c2-99 128-94 128-182 0-28-16-43-45-43s-46 15-49 41l-32-3c6-41 34-60 81-64" id="aW"/>
            <use transform="matrix(0.043209876543209874,0,0,0.043209876543209874,0,0)" xlink:href="#aW" id="B"/>
            <path fill="#19967d" d="M126-127c33 6 58 20 58 59 0 88-139 92-164 29-3-8-5-16-6-25l32-3c6 27 21 44 54 44 32 0 52-15 52-46 0-38-36-46-79-43v-28c39 1 72-4 72-42 0-27-17-43-46-43-28 0-47 15-49 41l-32-3c6-42 35-63 81-64 48-1 79 21 79 65 0 36-21 52-52 59" id="aX"/>
            <use transform="matrix(0.043209876543209874,0,0,0.043209876543209874,0,0)" xlink:href="#aX" id="C"/>
            <path fill="#19967d" d="M155-56V0h-30v-56H8v-25l114-167h33v167h35v25h-35zm-30-156c-27 46-58 90-88 131h88v-131" id="aY"/>
            <use transform="matrix(0.043209876543209874,0,0,0.043209876543209874,0,0)" xlink:href="#aY" id="D"/>
            <path fill="#c92d39" d="M101-251c68 0 85 55 85 127S166 4 100 4C33 4 14-52 14-124c0-73 17-127 87-127zm-1 229c47 0 54-49 54-102s-4-102-53-102c-51 0-55 48-55 102 0 53 5 102 54 102" id="aZ"/>
            <g id="E">
                <use transform="matrix(0.043209876543209874,0,0,0.043209876543209874,0,0)" xlink:href="#aM"/>
                <use transform="matrix(0.043209876543209874,0,0,0.043209876543209874,8.641975308641975,0)" xlink:href="#aZ"/>
            </g>
            <g id="F">
                <use transform="matrix(0.043209876543209874,0,0,0.043209876543209874,0,0)" xlink:href="#aM"/>
                <use transform="matrix(0.043209876543209874,0,0,0.043209876543209874,7.4753086419753085,0)" xlink:href="#aM"/>
            </g>
            <g id="G">
                <use transform="matrix(0.043209876543209874,0,0,0.043209876543209874,0,0)" xlink:href="#aM"/>
                <use transform="matrix(0.043209876543209874,0,0,0.043209876543209874,8.641975308641975,0)" xlink:href="#aN"/>
            </g>
            <g id="H">
                <use transform="matrix(0.043209876543209874,0,0,0.043209876543209874,0,0)" xlink:href="#aM"/>
                <use transform="matrix(0.043209876543209874,0,0,0.043209876543209874,8.641975308641975,0)" xlink:href="#aO"/>
            </g>
            <g id="I">
                <use transform="matrix(0.043209876543209874,0,0,0.043209876543209874,0,0)" xlink:href="#aM"/>
                <use transform="matrix(0.043209876543209874,0,0,0.043209876543209874,8.641975308641975,0)" xlink:href="#aP"/>
            </g>
            <g id="J">
                <use transform="matrix(0.043209876543209874,0,0,0.043209876543209874,0,0)" xlink:href="#aM"/>
                <use transform="matrix(0.043209876543209874,0,0,0.043209876543209874,8.641975308641975,0)" xlink:href="#aQ"/>
            </g>
            <g id="K">
                <use transform="matrix(0.043209876543209874,0,0,0.043209876543209874,0,0)" xlink:href="#aM"/>
                <use transform="matrix(0.043209876543209874,0,0,0.043209876543209874,8.641975308641975,0)" xlink:href="#aR"/>
            </g>
            <path fill="#19967d" d="M54-142c48-35 137-8 131 61C196 18 31 33 14-55l32-4c7 23 22 37 52 37 35-1 51-22 54-58 4-55-73-65-99-34H22l8-134h141v27H59" id="ba"/>
            <use transform="matrix(0.043209876543209874,0,0,0.043209876543209874,0,0)" xlink:href="#ba" id="L"/>
            <path fill="#19967d" d="M110-160c48 1 74 30 74 79 0 53-28 85-80 85-65 0-83-55-86-122-5-90 50-162 133-122 14 7 22 21 27 39l-31 6c-5-40-67-38-82-6-9 19-15 44-15 74 11-20 30-34 60-33zm-7 138c34 0 49-23 49-58s-16-56-50-56c-29 0-50 16-49 49 1 36 15 65 50 65" id="bb"/>
            <use transform="matrix(0.043209876543209874,0,0,0.043209876543209874,0,0)" xlink:href="#bb" id="M"/>
            <path fill="#19967d" d="M64 0c3-98 48-159 88-221H18v-27h164v26C143-157 98-101 97 0H64" id="bc"/>
            <use transform="matrix(0.043209876543209874,0,0,0.043209876543209874,0,0)" xlink:href="#bc" id="N"/>
            <path fill="#19967d" d="M134-131c28 9 52 24 51 62-1 50-34 73-85 73S17-19 16-69c0-36 21-54 49-61-75-25-45-126 34-121 46 3 78 18 79 63 0 33-17 51-44 57zm-34-11c31 1 46-15 46-44 0-28-17-43-47-42-29 0-46 13-45 42 1 28 16 44 46 44zm1 122c35 0 51-18 51-52 0-30-18-46-53-46-33 0-51 17-51 47 0 34 19 51 53 51" id="bd"/>
            <use transform="matrix(0.043209876543209874,0,0,0.043209876543209874,0,0)" xlink:href="#bd" id="O"/>
            <path fill="#19967d" d="M99-251c64 0 84 50 84 122C183-37 130 33 47-8c-14-7-20-23-25-40l30-5c6 39 69 39 84 7 9-19 16-44 16-74-10 22-31 35-62 35-49 0-73-33-73-83 0-54 28-83 82-83zm-1 141c31-1 51-18 51-49 0-36-14-67-51-67-34 0-49 23-49 58 0 34 15 58 49 58" id="be"/>
            <use transform="matrix(0.043209876543209874,0,0,0.043209876543209874,0,0)" xlink:href="#be" id="P"/>
            <path fill="#19967d" d="M101-251c68 0 85 55 85 127S166 4 100 4C33 4 14-52 14-124c0-73 17-127 87-127zm-1 229c47 0 54-49 54-102s-4-102-53-102c-51 0-55 48-55 102 0 53 5 102 54 102" id="bf"/>
            <g id="Q">
                <use transform="matrix(0.043209876543209874,0,0,0.043209876543209874,0,0)" xlink:href="#aV"/>
                <use transform="matrix(0.043209876543209874,0,0,0.043209876543209874,8.641975308641975,0)" xlink:href="#bf"/>
            </g>
            <g id="R">
                <use transform="matrix(0.043209876543209874,0,0,0.043209876543209874,0,0)" xlink:href="#aV"/>
                <use transform="matrix(0.043209876543209874,0,0,0.043209876543209874,7.4753086419753085,0)" xlink:href="#aV"/>
            </g>
            <g id="S">
                <use transform="matrix(0.043209876543209874,0,0,0.043209876543209874,0,0)" xlink:href="#aV"/>
                <use transform="matrix(0.043209876543209874,0,0,0.043209876543209874,8.641975308641975,0)" xlink:href="#aW"/>
            </g>
        </defs>
    </g>
</svg>